<?xml version="1.0" encoding="iso-8859-1"?>
<!-- Generator: Adobe Illustrator 19.0.0, SVG Export Plug-In . SVG Version: 6.00 Build 0)  -->
<svg version="1.1" id="Layer_1" xmlns="http://www.w3.org/2000/svg" xmlns:xlink="http://www.w3.org/1999/xlink" x="0px" y="0px"
	 viewBox="0 0 511.999 511.999" style="enable-background:new 0 0 511.999 511.999;" xml:space="preserve">
<path style="fill:#E6E6E6;" d="M348.361,237.046v242.387c0,12.16-9.873,22.02-22.033,22.02c-6.079,0-11.585-2.465-15.57-6.45
	c-3.985-3.985-6.45-9.49-6.45-15.57V237.046H348.361z"/>
<path style="fill:#CCCCCC;" d="M326.328,235.211v-19.454l-22.02-4.867v268.541c0,6.079,2.465,11.585,6.45,15.569
	s9.49,6.45,15.57,6.45V295.798c0-11.502,6.872-21.891,17.457-26.39l4.576-1.945v-32.142L326.328,235.211z"/>
<path style="fill:#E6E6E6;" d="M264.553,219.011v203.238c0,15.582-12.652,28.217-28.233,28.217c-7.79,0-14.845-3.159-19.951-8.266
	c-5.107-5.107-8.266-12.161-8.266-19.951V207.243l28.217,6.236l2.03,0.442C247.057,215.835,255.78,217.538,264.553,219.011z"/>
<path style="fill:#CCCCCC;" d="M264.553,219.011c-8.773-1.472-17.497-3.175-26.205-5.09l-2.03-0.442l-28.217-6.236v1.948v19.903
	v193.155c0,7.79,3.159,14.845,8.266,19.951c5.107,5.107,12.161,8.266,19.951,8.266V238.261c0-10.247,9.852-17.598,19.678-14.692
	c2.836,0.839,5.688,1.641,8.555,2.406v-6.965H264.553z"/>
<path style="fill:#F95428;" d="M401.418,149.733c-0.039,0.025-0.089,0.038-0.128,0.064c-47.693,24.562-101.555,38.79-158.661,39.774
	c-2.095,0.038-4.189,0.051-6.297,0.051c-18.341,0-36.351-1.367-53.951-4.01c-39.48-5.913-76.866-18.226-111.071-35.84
	c-7.319-3.768-10.691-12.441-7.766-20.13C90.047,60.016,157.398,10.548,236.333,10.548c67.375,0,126.334,36.057,158.624,89.933
	c5.53,9.235,10.281,18.98,14.152,29.16C412.032,137.304,408.699,145.976,401.418,149.733z"/>
<g>
	<path style="fill:#E54728;" d="M237.325,10.561c-61.577,16.706-111.761,72.127-133.768,145.085
		c-0.83,2.746-1.149,5.582-1.009,8.354c-10.678-4.254-21.1-9.004-31.242-14.228c-7.319-3.768-10.691-12.441-7.766-20.13
		C90.044,60.016,157.394,10.548,236.329,10.548C236.661,10.548,236.994,10.548,237.325,10.561z"/>
	<path style="fill:#E54728;" d="M401.418,149.733c-0.039,0.025-0.089,0.038-0.128,0.064
		c-47.693,24.562-101.555,38.79-158.661,39.774c-20.449-0.294-40.553-1.968-60.248-4.93c26.797-56.608,84.44-95.77,151.24-95.77
		c21.65,0,42.341,4.113,61.335,11.61c5.53,9.235,10.281,18.98,14.152,29.16C412.032,137.304,408.699,145.976,401.418,149.733z"/>
</g>
<path style="fill:#F95428;" d="M326.341,239.009c39.041,0,76.09-8.508,109.41-23.76c12.122-5.549,17.205-20.098,11.261-32.032
	c-22.067-44.307-67.811-74.749-120.671-74.749s-98.604,30.442-120.671,74.749c-5.943,11.933-0.86,26.483,11.261,32.032
	C250.251,230.5,287.3,239.009,326.341,239.009z"/>
<path style="fill:#E54728;" d="M232.067,212.13c19.88-55.78,58.978-95.819,105.18-103.213c-3.599-0.288-7.233-0.45-10.906-0.45
	c-52.86,0-98.604,30.442-120.671,74.749c-5.943,11.933-0.861,26.483,11.261,32.032c4.292,1.964,8.647,3.812,13.058,5.549
	C230.384,217.857,231.065,214.941,232.067,212.13z"/>
<path style="fill:#FFFFFF;" d="M323.652,73.708c-1.696,0-3.412-0.489-4.925-1.509c-2.781-1.877-5.665-3.681-8.57-5.363
	c-22.36-12.949-47.937-19.793-73.965-19.793c-4.873,0-8.821-3.949-8.821-8.821s3.948-8.821,8.821-8.821
	c29.128,0,57.762,7.666,82.807,22.167c3.252,1.883,6.479,3.902,9.595,6.004c4.039,2.724,5.104,8.207,2.379,12.246
	C329.27,72.345,326.487,73.708,323.652,73.708z"/>
<path style="fill:#333333;" d="M456.251,178.772c-8.84-17.748-21.204-33.431-36.27-46.139c-0.18-2.4-0.693-4.77-1.552-7.015
	c-4.029-10.599-9.051-20.95-14.931-30.766c-17.011-28.384-41.136-52.149-69.765-68.728C304.216,9.034,270.487,0,236.192,0
	c-40.311,0-78.995,12.197-111.869,35.274c-32.129,22.552-56.466,53.791-70.379,90.341c-4.544,11.946,0.626,25.38,12.027,31.25
	c35.998,18.536,74.55,30.977,114.586,36.974c4.447,0.665,8.967,1.247,13.507,1.759c0.208,2.906,0.8,5.806,1.801,8.637
	c0.803,2.275,1.843,4.415,3.081,6.41v212.774c0,9.946,3.873,19.296,10.906,26.329c7.032,7.032,16.383,10.905,26.328,10.905
	c20.538,0,37.247-16.703,37.247-37.234V242.507c7.399,1.462,14.867,2.622,22.4,3.465v235.033c0,8.279,3.224,16.062,9.078,21.915
	c5.855,5.856,13.638,9.079,21.918,9.079c17.098,0,31.008-13.905,31.008-30.995v-235.03c28.67-3.212,56.432-10.897,82.855-22.99
	c8.073-3.695,14.153-10.353,17.12-18.747C460.783,195.809,460.231,186.765,456.251,178.772z M74.045,141.18
	c-3.407-1.755-4.962-5.749-3.613-9.29c12.654-33.242,34.792-61.658,64.024-82.176c29.892-20.982,65.07-32.072,101.735-32.072
	c31.195,0,61.867,8.213,88.7,23.75c26.047,15.082,47.998,36.705,63.473,62.527c2.27,3.789,4.39,7.672,6.37,11.617
	c-20.819-11.098-44.082-16.928-67.9-16.928c-27.391,0-54.053,7.701-77.103,22.271c-22.253,14.066-40.234,33.9-52.045,57.375
	c-4.884-0.529-9.747-1.148-14.519-1.862C145.043,170.68,108.329,158.833,74.045,141.18z M255.784,423.419
	c0,10.804-8.796,19.593-19.606,19.593c-5.232,0-10.153-2.038-13.854-5.739c-3.7-3.7-5.738-8.62-5.738-13.853V224.573
	c12.778,5.631,25.858,10.25,39.198,13.831V423.419z M340.188,481.004c0,7.364-5.997,13.353-13.366,13.353
	c-3.567,0-6.92-1.389-9.442-3.912c-2.524-2.523-3.912-5.876-3.912-9.442V247.378c4.437,0.211,8.892,0.332,13.366,0.332
	c4.47,0,8.921-0.121,13.353-0.332V481.004z M441.171,198.357c-1.36,3.847-4.141,6.897-7.828,8.584
	c-33.526,15.346-69.362,23.127-106.51,23.127s-72.984-7.781-106.509-23.127c-3.689-1.689-6.47-4.737-7.829-8.586
	c-1.371-3.881-1.118-8.043,0.713-11.72c21.624-43.417,65.162-70.387,113.624-70.387c48.463,0,92.003,26.97,113.624,70.387
	C442.29,190.314,442.543,194.476,441.171,198.357z"/>
<g>
	<path style="fill:#FFFFFF;" d="M419.301,199.477c-3.073,0-6.058-1.609-7.682-4.474c-9.014-15.907-22.175-28.888-38.063-37.539
		c-4.279-2.33-5.857-7.687-3.528-11.966c2.329-4.279,7.683-5.859,11.966-3.528c18.783,10.229,34.335,25.559,44.975,44.334
		c2.402,4.239,0.913,9.622-3.326,12.023C422.268,199.107,420.774,199.477,419.301,199.477z"/>
	<circle style="fill:#FFFFFF;" cx="352.158" cy="139.838" r="8.821"/>
</g>
<g>
</g>
<g>
</g>
<g>
</g>
<g>
</g>
<g>
</g>
<g>
</g>
<g>
</g>
<g>
</g>
<g>
</g>
<g>
</g>
<g>
</g>
<g>
</g>
<g>
</g>
<g>
</g>
<g>
</g>
</svg>
