<?xml version="1.0" encoding="iso-8859-1"?>
<!-- Generator: Adobe Illustrator 19.0.0, SVG Export Plug-In . SVG Version: 6.00 Build 0)  -->
<svg version="1.1" id="Layer_1" xmlns="http://www.w3.org/2000/svg" xmlns:xlink="http://www.w3.org/1999/xlink" x="0px" y="0px"
	 viewBox="0 0 512 512" style="enable-background:new 0 0 512 512;" xml:space="preserve">
<path style="fill:#F9DCB2;" d="M374.472,39.896c50.468-21.949,100.925,19.747,100.925,19.747S306.459,230.771,306.459,399.709
	v52.659c0,27.871-22.585,50.456-50.456,50.456c-27.871,0-50.468-22.585-50.468-50.456v-52.659
	c0-168.938-168.938-340.066-168.938-340.066s50.468-41.696,100.925-19.747c0,0,41.684-30.722,118.482-30.722
	C332.789,9.175,374.472,39.896,374.472,39.896z"/>
<path style="fill:#DDBB8E;" d="M230.249,481.56c0,5.077,0.294,10.008,0.832,14.694c-15.257-8.687-25.546-25.081-25.546-43.886
	v-52.659c0-168.938-168.938-340.066-168.938-340.066s50.468-41.696,100.925-19.747c0,0,2.826-2.08,8.369-5.163
	c12.443,29.706,84.359,209.068,84.359,386.338L230.249,481.56L230.249,481.56z"/>
<path style="fill:#FFFFFF;" d="M370.618,84.688c-1.951,0-3.918-0.62-5.585-1.903L351.1,72.075
	c-3.186-2.097-36.622-23.137-95.097-23.137c-13.771,0-27.273,1.181-40.126,3.509c-4.986,0.905-9.761-2.408-10.664-7.393
	c-0.903-4.986,2.407-9.761,7.393-10.664c13.931-2.524,28.532-3.803,43.397-3.803c64.684,0,101.594,23.724,105.59,26.43
	c0.153,0.103,0.302,0.21,0.449,0.324l14.176,10.899c4.018,3.088,4.77,8.849,1.682,12.867
	C376.092,83.455,373.371,84.688,370.618,84.688z"/>
<g>
	<path style="fill:#333333;" d="M481.243,52.563c-0.559-0.462-13.933-11.413-33.932-19.528
		c-25.261-10.252-49.966-11.414-71.785-3.44C362.578,21.577,321.635,0,255.999,0S149.421,21.577,136.473,29.595
		c-21.822-7.975-46.525-6.811-71.784,3.44c-20,8.115-33.373,19.065-33.933,19.528c-1.984,1.639-3.19,4.037-3.319,6.609
		c-0.131,2.572,0.825,5.079,2.634,6.911c0.416,0.421,42.082,42.867,83.345,105.296c68.558,103.725,82.948,181.417,82.948,228.327
		v52.656c0,32.883,26.754,59.637,59.637,59.637l0,0c32.885,0,59.637-26.754,59.637-59.637v-52.656
		c0-84.88,45-170.853,82.751-228.028c41.263-62.494,83.124-105.171,83.543-105.596c1.807-1.833,2.763-4.341,2.632-6.911
		C484.431,56.601,483.227,54.203,481.243,52.563z M383.274,161.262c-24.867,37.624-44.699,74.851-58.944,110.646
		c-17.947,45.1-27.046,88.098-27.046,127.8v52.656c0,22.764-18.521,41.285-41.286,41.285c-22.764,0-41.285-18.521-41.285-41.285
		v-52.656c0-39.701-9.1-82.699-27.046-127.8c-14.245-35.795-34.076-73.022-58.944-110.646
		C96.476,112.472,64.605,76.23,50.548,61.021C63.404,52.809,89.877,39.117,117.9,43.64l-16.763,13.171
		c-3.985,3.131-4.677,8.9-1.546,12.884c1.811,2.304,4.502,3.508,7.221,3.508c1.984,0,3.982-0.641,5.663-1.961l25.068-19.696
		c0,0,8.522-6.45,13.324-9.094c14.934-8.223,50.809-24.1,105.132-24.1c37.859,0,66.569,7.863,83.987,14.459
		c8.953,3.391,15.92,6.8,20.78,9.454c5.053,2.76,13.047,8.776,13.047,8.776l25.709,20.2c1.681,1.321,3.679,1.961,5.663,1.961
		c2.72,0,5.411-1.204,7.221-3.508c3.131-3.985,2.438-9.754-1.546-12.884l-16.763-13.171c28.026-4.523,54.504,9.172,67.354,17.381
		C447.393,76.23,415.523,112.472,383.274,161.262z"/>
	<path style="fill:#333333;" d="M345.826,86.168c-4.735-1.812-10.037,0.559-11.849,5.292
		c-17.228,45.026-40.557,115.381-53.869,194.844c-0.838,4.998,2.535,9.729,7.533,10.566c0.514,0.086,1.024,0.127,1.527,0.127
		c4.402,0,8.288-3.176,9.039-7.661c13.749-82.077,39.052-155.098,52.911-191.319C352.929,93.285,350.56,87.98,345.826,86.168z"/>
	<path style="fill:#333333;" d="M178.017,91.46c-1.812-4.734-7.117-7.102-11.849-5.292c-4.734,1.811-7.102,7.116-5.292,11.849
		c16.94,44.275,39.874,113.405,52.925,191.319c0.751,4.485,4.638,7.661,9.039,7.661c0.504,0,1.014-0.042,1.527-0.127
		c4.998-0.838,8.371-5.568,7.534-10.566C218.6,206.895,195.257,136.517,178.017,91.46z"/>
	<path style="fill:#333333;" d="M255.999,70.208c-5.068,0-9.176,4.108-9.176,9.176v127.252c0,5.068,4.108,9.176,9.176,9.176
		s9.176-4.108,9.176-9.176V79.384C265.174,74.317,261.067,70.208,255.999,70.208z"/>
</g>
<g>
</g>
<g>
</g>
<g>
</g>
<g>
</g>
<g>
</g>
<g>
</g>
<g>
</g>
<g>
</g>
<g>
</g>
<g>
</g>
<g>
</g>
<g>
</g>
<g>
</g>
<g>
</g>
<g>
</g>
</svg>
