<?xml version="1.0" encoding="iso-8859-1"?>
<!-- Generator: Adobe Illustrator 19.0.0, SVG Export Plug-In . SVG Version: 6.00 Build 0)  -->
<svg version="1.1" id="Layer_1" xmlns="http://www.w3.org/2000/svg" xmlns:xlink="http://www.w3.org/1999/xlink" x="0px" y="0px"
	 viewBox="0 0 512 512" style="enable-background:new 0 0 512 512;" xml:space="preserve">
<path style="fill:#F9DCB2;" d="M334.636,246.535c0,0-11.292,9.346-33.607,16.018c-11.691,3.494-26.419,6.262-44.125,6.578
	c-10.178,0.176-19.301-0.774-27.38-2.416c-7.012-1.419-13.239-3.365-18.703-5.535c-20.134-8.009-29.854-19.172-29.854-19.172
	l16.71-38.356l11.327-25.997c10.741,0.821,21.681,1.372,32.786,1.63c5.042,0.129,10.131,0.188,15.244,0.188
	c16.839,0,33.325-0.657,49.343-1.911l10.659,26.032L334.636,246.535z"/>
<path style="fill:#DDBB8E;" d="M241.79,179.287l-12.265,87.429c-7.012-1.419-13.239-3.365-18.703-5.535
	c-20.134-8.009-29.854-19.172-29.854-19.172l28.037-64.352C219.745,178.478,230.685,179.029,241.79,179.287z"/>
<path style="fill:#F9DCB2;" d="M319.65,450.779c0,28.951-28.529,52.427-63.731,52.427s-63.719-23.475-63.719-52.427
	c0-4.819,0.786-9.498,2.263-13.919c10.225-30.617,16.358-63.098,16.358-96.235v-79.444c11.761,4.679,27.075,8.279,46.083,7.95
	c17.706-0.317,32.434-3.084,44.125-6.578v78.072c0,33.138,6.133,65.619,16.358,96.235
	C318.865,441.281,319.65,445.959,319.65,450.779z"/>
<g>
	<path style="fill:#DDBB8E;" d="M224.285,450.779c0-4.819,0.39-9.498,1.123-13.919c5.077-30.617,8.121-63.098,8.121-96.235v-73.173
		c-8.662-1.446-16.229-3.693-22.71-6.271v79.444c0,33.138-6.133,65.619-16.358,96.235c-1.477,4.421-2.263,9.099-2.263,13.919
		c0,28.951,28.518,52.427,63.719,52.427c0,0,0.001,0,0.002,0C238.444,503.204,224.285,479.729,224.285,450.779z"/>
	<path style="fill:#DDBB8E;" d="M255.926,269.136c-0.466,0.005-0.928,0.006-1.388,0.006
		C254.995,269.151,255.459,269.145,255.926,269.136z"/>
	<path style="fill:#DDBB8E;" d="M301.03,262.553v19.934c-11.691,3.494-26.419,6.262-44.125,6.578
		c-10.178,0.176-19.301-0.774-27.38-2.416c-7.012-1.419-13.239-3.365-18.703-5.535v-19.934c11.761,4.679,27.075,8.279,46.083,7.95
		C274.611,268.815,289.339,266.047,301.03,262.553z"/>
</g>
<path style="fill:#F95428;" d="M306.377,177.563c-16.018,1.255-32.504,1.911-49.343,1.911c-16.369,0-32.411-0.621-48.03-1.818
	c-41.604-3.166-80.135-10.401-113.472-20.732c-1.477-6.871-2.251-13.93-2.251-21.13c0-70.145,72.854-127.004,162.722-127.004
	s162.71,56.859,162.71,127.004c0,7.434-0.821,14.728-2.392,21.822C383.838,167.479,346.562,174.409,306.377,177.563z"/>
<path style="fill:#E54728;" d="M156.601,148.473c0-68.078,56.736-124.767,131.827-137.157c-10.48-1.655-21.323-2.526-32.426-2.526
	C166.134,8.791,93.28,65.65,93.28,135.795c0,7.2,0.774,14.259,2.251,21.13c19.47,6.033,40.721,11.001,63.31,14.728
	C157.372,164.115,156.601,156.371,156.601,148.473z"/>
<path style="fill:#DDBB8E;" d="M317.036,203.595c-3.53,0.352-7.082,0.657-10.659,0.938c-16.018,1.255-32.504,1.911-49.343,1.911
	c-16.369,0-32.411-0.621-48.03-1.818c-3.799-0.293-7.575-0.61-11.327-0.973l11.327-25.997c10.741,0.821,21.681,1.372,32.786,1.63
	c5.042,0.129,10.131,0.188,15.244,0.188c16.839,0,33.325-0.657,49.343-1.911L317.036,203.595z"/>
<g>
	<path style="fill:#FFFFFF;" d="M389.385,143.48c-4.794,0-8.717-3.847-8.791-8.657c-0.337-21.572-12.051-42.453-32.986-58.794
		c-11.548-9.014-25.036-16.107-40.091-21.082c-4.612-1.524-7.114-6.499-5.591-11.11c1.523-4.612,6.497-7.117,11.11-5.591
		c16.978,5.612,32.252,13.658,45.396,23.917c25.211,19.68,39.328,45.387,39.749,72.383c0.075,4.857-3.799,8.855-8.656,8.931
		C389.478,143.48,389.431,143.48,389.385,143.48z"/>
	<path style="fill:#FFFFFF;" d="M278.581,414.442c-4.077,0-7.734-2.851-8.6-6.999c-4.685-22.442-7.06-44.923-7.06-66.818v-37.406
		c0-4.857,3.936-8.794,8.794-8.794s8.794,3.938,8.794,8.794v37.406c0,20.69,2.251,41.961,6.69,63.224
		c0.993,4.755-2.057,9.414-6.812,10.407C279.782,414.381,279.177,414.442,278.581,414.442z"/>
	<circle style="fill:#FFFFFF;" cx="233.51" cy="66.357" r="19.934"/>
	<circle style="fill:#FFFFFF;" cx="316.765" cy="115.607" r="19.934"/>
</g>
<g>
	<path style="fill:#333333;" d="M233.509,95.083c-15.842,0-28.729-12.888-28.729-28.729s12.887-28.729,28.729-28.729
		s28.729,12.888,28.729,28.729S249.35,95.083,233.509,95.083z M233.509,55.214c-6.142,0-11.14,4.998-11.14,11.14
		c0,6.142,4.998,11.14,11.14,11.14s11.14-4.998,11.14-11.14S239.651,55.214,233.509,55.214z"/>
	<path style="fill:#333333;" d="M316.763,144.332c-15.842,0-28.729-12.888-28.729-28.729s12.887-28.729,28.729-28.729
		s28.729,12.888,28.729,28.729S332.604,144.332,316.763,144.332z M316.763,104.463c-6.142,0-11.14,4.998-11.14,11.14
		c0,6.142,4.998,11.14,11.14,11.14c6.142,0,11.14-4.998,11.14-11.14C327.903,109.461,322.906,104.463,316.763,104.463z"/>
</g>
<path style="fill:#FFFFFF;" d="M302.912,244.005c-3.324,0-6.507-1.895-7.99-5.111l-7.036-15.244c-2.036-4.41-0.111-9.635,4.3-11.671
	c4.409-2.036,9.635-0.11,11.67,4.3l7.036,15.244c2.036,4.41,0.111,9.635-4.3,11.671
	C305.397,243.743,304.145,244.005,302.912,244.005z"/>
<g>
	<path style="fill:#333333;" d="M376.466,39.058C344.196,13.871,301.414,0,255.998,0S167.8,13.871,135.531,39.058
		c-32.914,25.689-51.04,60.045-51.04,96.738c0,7.724,0.821,15.456,2.439,22.981c0.667,3.106,2.958,5.611,5.994,6.551
		c31.426,9.738,66.371,16.476,103.134,20.021l-23.154,53.152c-1.356,3.112-0.8,6.727,1.432,9.288
		c0.636,0.729,9.696,10.87,27.691,19.194v73.642c0,30.41-5.351,61.851-15.904,93.448c-1.802,5.394-2.716,11.014-2.716,16.706
		c0,33.758,32.529,61.221,72.514,61.221c39.99,0,72.526-27.463,72.526-61.221c0-5.693-0.915-11.314-2.716-16.704
		c-10.553-31.6-15.904-63.041-15.904-93.45v-71.672c19.52-6.803,29.729-15.071,30.423-15.646c2.963-2.453,3.989-6.549,2.529-10.11
		l-23.744-57.942c35.504-3.485,69.31-9.955,99.836-19.225c3.037-0.922,5.342-3.409,6.031-6.507c1.73-7.775,2.605-15.76,2.605-23.73
		C427.506,99.102,409.38,64.747,376.466,39.058z M309.047,439.649c1.201,3.592,1.81,7.336,1.81,11.129
		c0,24.059-24.646,43.632-54.937,43.632c-30.285,0-54.925-19.573-54.925-43.632c0-3.793,0.61-7.539,1.809-11.133
		c11.156-33.398,16.812-66.715,16.812-99.021v-67.217c9.924,2.732,21.522,4.54,34.836,4.539c0.857,0,1.731-0.008,2.603-0.023
		c13.311-0.233,25.039-1.793,35.181-4.021v66.721C292.236,372.931,297.892,406.246,309.047,439.649z M323.789,243.242
		c-9.593,5.722-32.168,16.484-67.043,17.097c-35.384,0.621-56.947-13.631-65.238-20.503l23.076-52.97
		c13.966,0.923,28.142,1.4,42.454,1.4c14.702,0,29.273-0.5,43.618-1.475L323.789,243.242z M408.698,150.704
		c-45.138,13.076-97.441,19.973-151.66,19.973c-55.144,0-108.203-7.12-153.844-20.617c-0.74-4.709-1.113-9.488-1.113-14.265
		c0-65.179,69.046-118.206,153.918-118.206s153.919,53.027,153.919,118.206C409.917,140.785,409.508,145.779,408.698,150.704z"/>
	<circle style="fill:#333333;" cx="156.33" cy="102.122" r="8.794"/>
	<circle style="fill:#333333;" cx="234.894" cy="136.127" r="8.794"/>
</g>
<circle style="fill:#FFFFFF;" cx="282.97" cy="40.557" r="8.794"/>
<g>
</g>
<g>
</g>
<g>
</g>
<g>
</g>
<g>
</g>
<g>
</g>
<g>
</g>
<g>
</g>
<g>
</g>
<g>
</g>
<g>
</g>
<g>
</g>
<g>
</g>
<g>
</g>
<g>
</g>
</svg>
