<?xml version="1.0" encoding="iso-8859-1"?>
<!-- Generator: Adobe Illustrator 19.0.0, SVG Export Plug-In . SVG Version: 6.00 Build 0)  -->
<svg version="1.1" id="Layer_1" xmlns="http://www.w3.org/2000/svg" xmlns:xlink="http://www.w3.org/1999/xlink" x="0px" y="0px"
	 viewBox="0 0 503.467 503.467" style="enable-background:new 0 0 503.467 503.467;" xml:space="preserve">
<g transform="translate(1 9)">
	<path style="fill:#AE938D;" d="M276.333,208.6c0,0,0,8.533-8.533,8.533h-34.133h-76.8h-34.133H11.8
		c-8.533,0-8.533-8.533-8.533-8.533C12.653,159.107,39.96,107.907,70.68,72.067l0.853,0.853c0,0,51.2,16.213,93.867,7.68
		c0,0,22.187-0.853,42.667-6.827l0.853-0.853c18.773,21.333,36.693,50.347,49.493,80.213
		C266.093,171.053,272.92,189.827,276.333,208.6"/>
	<path style="fill:#FFD0A1;" d="M208.92,72.92l-0.853,0.853C187.587,79.747,165.4,80.6,165.4,80.6
		c-42.667,8.533-93.867-7.68-93.867-7.68l-0.853-0.853C93.72,46.467,118.467,29.4,139.8,29.4
		C161.987,29.4,186.733,46.467,208.92,72.92z M429.933,106.2L429.933,106.2c-27.307,9.387-43.52,8.533-43.52,8.533
		c-42.667,8.533-93.867-7.68-93.867-7.68l-0.853-0.853c22.187-25.6,47.787-42.667,69.12-42.667
		C383,63.533,407.747,80.6,429.933,106.2z"/>
	<path style="fill:#F2EDDA;" d="M156.867,251.267l8.533,204.8h-51.2l8.533-204.8v-34.133h34.133V251.267z M378.733,285.4
		l8.533,170.667h-51.2L344.6,285.4v-33.28v-0.853h34.133V285.4z"/>
	<path style="fill:#AE938D;" d="M498.2,242.733c0,0,0,8.533-8.533,8.533H378.733H344.6H233.667c-8.533,0-8.533-8.533-8.533-8.533
		s4.267-17.92,8.533-25.6H267.8c8.533,0,8.533-8.533,8.533-8.533c-3.413-18.773-10.24-37.547-17.92-56.32h0.853
		c10.24-17.067,19.627-29.013,19.627-29.013c4.267-5.973,8.533-11.947,13.653-17.067l0.853,0.853c0,0,51.2,16.213,93.867,7.68
		c0,0,15.36,0.853,42.667-8.533l0.853-0.853C461.507,141.187,487.96,193.24,498.2,242.733"/>
</g>
<path style="fill:#51565F;" d="M388.267,469.333L388.267,469.333h-51.2l0,0H166.4l0,0h-51.2l0,0H89.6
	c-2.56,0-4.267-1.707-4.267-4.267c0-2.56,1.707-4.267,4.267-4.267h21.333l8.533-200.533c0-2.56,2.56-4.267,4.267-4.267
	c2.56,0,4.267,1.707,4.267,4.267l0,0L119.467,460.8h42.667L153.6,260.267l0,0c0-2.56,1.707-4.267,4.267-4.267
	c2.56,0,4.267,1.707,4.267,4.267l8.533,200.533H332.8l8.533-166.4c0-2.56,1.707-4.267,4.267-4.267s4.267,1.707,4.267,4.267l0,0
	l-8.533,166.4h41.813l-8.533-166.4l0,0c0-2.56,1.707-4.267,4.267-4.267s4.267,1.707,4.267,4.267l8.533,166.4h55.467
	c2.56,0,4.267,1.707,4.267,4.267c0,2.56-1.707,4.267-4.267,4.267H388.267L388.267,469.333z M499.2,469.333h-17.067
	c-2.56,0-4.267-1.707-4.267-4.267c0-2.56,1.707-4.267,4.267-4.267H499.2c2.56,0,4.267,1.707,4.267,4.267
	C503.467,467.627,501.76,469.333,499.2,469.333z M55.467,469.333h-51.2c-2.56,0-4.267-1.707-4.267-4.267
	c0-2.56,1.707-4.267,4.267-4.267h51.2c2.56,0,4.267,1.707,4.267,4.267C59.733,467.627,58.027,469.333,55.467,469.333z
	 M490.667,264.533h-256c-9.387,0-12.8-7.68-12.8-12.8v-0.853c0-0.853,2.56-11.947,5.973-20.48H12.8c-9.387,0-12.8-7.68-12.8-12.8
	v-0.853c16.213-81.92,84.48-182.613,140.8-182.613s124.587,100.693,140.8,182.613c0,5.973-3.413,13.653-12.8,13.653h-31.573
	c-2.56,5.973-5.973,17.067-6.827,21.333c0,1.707,0.853,4.267,4.267,4.267h256c3.413,0,4.267-1.707,4.267-4.267
	C477.867,166.4,409.6,76.8,362.667,76.8c-17.92,0-40.107,13.653-61.44,36.693c13.653,3.413,52.907,12.8,86.187,5.973
	c2.56-0.853,4.267,0.853,5.12,3.413s-0.853,4.267-3.413,5.12c-40.107,7.68-86.187-4.267-94.72-6.827
	c-3.413,4.267-7.68,9.387-11.093,13.653c-1.707,1.707-4.267,2.56-5.973,0.853c-1.707-1.707-2.56-4.267-0.853-5.973
	c29.013-39.253,59.733-61.44,86.187-61.44c56.32,0,124.587,100.693,140.8,182.613C503.467,256.853,500.053,264.533,490.667,264.533z
	 M234.667,221.867H268.8c3.413,0,4.267-1.707,4.267-4.267C256,132.267,187.733,42.667,140.8,42.667
	c-18.773,0-40.96,14.507-61.44,36.693c13.653,3.413,52.907,12.8,86.187,5.973c2.56-0.853,4.267,0.853,5.12,3.413
	c0.853,2.56-0.853,4.267-3.413,5.12C128,101.547,81.92,89.6,72.533,87.04c-29.013,34.133-54.613,83.627-64,131.413
	c0,1.707,0.853,4.267,4.267,4.267h221.867C234.667,221.867,234.667,221.867,234.667,221.867z"/>
<g>
</g>
<g>
</g>
<g>
</g>
<g>
</g>
<g>
</g>
<g>
</g>
<g>
</g>
<g>
</g>
<g>
</g>
<g>
</g>
<g>
</g>
<g>
</g>
<g>
</g>
<g>
</g>
<g>
</g>
</svg>
