<?xml version="1.0" encoding="iso-8859-1"?>
<!-- Generator: Adobe Illustrator 19.0.0, SVG Export Plug-In . SVG Version: 6.00 Build 0)  -->
<svg version="1.1" id="Layer_1" xmlns="http://www.w3.org/2000/svg" xmlns:xlink="http://www.w3.org/1999/xlink" x="0px" y="0px"
	 viewBox="0 0 512.005 512.005" style="enable-background:new 0 0 512.005 512.005;" xml:space="preserve">
<path style="fill:#EBEACC;" d="M312.761,459.837C316.615,508,291.422,512.005,256,512.005l0,0c-35.427,0-60.609-4-56.755-52.168
	l13.876-173.484c1.962-24.568,21.094-42.879,42.885-42.879l0,0c21.79,0,40.917,18.312,42.885,42.879L312.761,459.837z"/>
<g>
	<path style="fill:#C4C3AB;" d="M256,369.644c17.045,0,33.579-0.804,49.342-2.538l-6.457-80.752
		c-1.962-24.568-21.094-42.879-42.885-42.879s-40.917,18.312-42.885,42.879l-6.457,80.752
		C222.421,368.834,238.955,369.644,256,369.644z"/>
	<path style="fill:#C4C3AB;" d="M312.761,459.837l-13.882-173.484c-1.294-16.192-10.061-29.617-22.1-36.922
		c3.924,6.338,6.501,13.8,7.158,21.975l13.882,173.495c3.854,48.162-21.339,52.168-56.755,52.168
		c-15.05,0-28.209-0.766-38.118-5.289c8.175,18.143,28.024,20.225,53.054,20.225C291.422,512,316.615,508,312.761,459.837z"/>
</g>
<path style="fill:#EBEACC;" d="M451.671,219.217c0,95.966-87.601,128.295-195.671,128.295S60.329,315.188,60.329,219.217
	C60.329,123.262,147.93,0,256,0S451.671,123.262,451.671,219.217z"/>
<path style="fill:#D1D0B6;" d="M365.63,44.271c37.694,43.439,61.256,100.439,61.256,150.15c0,95.966-87.612,128.3-195.676,128.3
	c-60.897,0-115.305-10.278-151.188-36.411c31.758,44.618,98.624,61.202,175.984,61.202c108.07,0,195.671-32.324,195.671-128.295
	C451.671,159.33,417.548,88.824,365.63,44.271z"/>
<g>
</g>
<g>
</g>
<g>
</g>
<g>
</g>
<g>
</g>
<g>
</g>
<g>
</g>
<g>
</g>
<g>
</g>
<g>
</g>
<g>
</g>
<g>
</g>
<g>
</g>
<g>
</g>
<g>
</g>
</svg>
