<?xml version="1.0" encoding="iso-8859-1"?>
<!-- Generator: Adobe Illustrator 19.0.0, SVG Export Plug-In . SVG Version: 6.00 Build 0)  -->
<svg version="1.1" id="Layer_1" xmlns="http://www.w3.org/2000/svg" xmlns:xlink="http://www.w3.org/1999/xlink" x="0px" y="0px"
	 viewBox="0 0 512.002 512.002" style="enable-background:new 0 0 512.002 512.002;" xml:space="preserve">
<circle style="fill:#F2F2F2;" cx="256.001" cy="256.025" r="247.111"/>
<circle style="fill:#E6E6E6;" cx="256.001" cy="256.025" r="159.581"/>
<g>
	<path style="fill:#F4C67D;" d="M344.341,171.262v15.964c0,15.395,1.73,30.738,5.166,45.743c0.594,2.591,0.876,5.171,0.876,7.701
		c0,18.346-14.9,34.107-34.195,34.107c-21.954,0-38.219-20.405-33.32-41.807c1.715-7.503,3.008-15.088,3.873-22.726
		c0.861-7.633,1.293-15.317,1.293-23.017v-15.567"/>
	<path style="fill:#F4C67D;" d="M167.66,340.79v-15.964c0-15.395-1.73-30.738-5.166-45.743c-0.594-2.591-0.876-5.171-0.876-7.701
		c0-18.346,14.9-34.107,34.195-34.107c21.954,0,38.219,20.405,33.32,41.807c-1.715,7.503-3.008,15.088-3.873,22.726
		c-0.86,7.633-1.293,15.317-1.293,23.017v15.567"/>
</g>
<g>
	<path style="fill:#E0B16E;" d="M186.624,340.657v-15.83c0-15.395-1.73-30.738-5.166-45.742c-0.594-2.591-0.876-5.172-0.876-7.701
		c0-15.201,10.235-28.618,24.717-32.773c-2.999-0.862-6.176-1.333-9.487-1.333c-19.295,0-34.195,15.76-34.195,34.107
		c0,2.528,0.282,5.11,0.876,7.701c3.436,15.004,5.166,30.347,5.166,45.742v15.964L186.624,340.657z"/>
	<path style="fill:#E0B16E;" d="M307,171.396v15.83c0,15.395-1.73,30.738-5.166,45.743c-0.594,2.591-0.876,5.172-0.876,7.701
		c0,15.201,10.235,28.618,24.718,32.773c-2.999,0.862-6.176,1.333-9.487,1.333c-19.295,0-34.195-15.76-34.195-34.107
		c0-2.528,0.282-5.11,0.876-7.701c3.436-15.004,5.166-30.347,5.166-45.743v-15.964L307,171.396z"/>
</g>
<path style="fill:#C4A174;" d="M229.929,171.262c-5.178,0-9.272-4.456-8.758-9.609c4.819-48.228,45.52-85.886,95.017-85.886
	s90.198,37.658,95.017,85.886c0.514,5.153-3.578,9.609-8.758,9.609H229.929z"/>
<path style="fill:#B58E64;" d="M261.469,161.653c4.146-41.489,34.857-75.131,74.868-83.729c-6.499-1.396-13.233-2.156-20.149-2.156
	c-49.497,0-90.198,37.658-95.017,85.886c-0.514,5.153,3.578,9.609,8.757,9.609h40.298
	C265.049,171.262,260.955,166.806,261.469,161.653z"/>
<path style="fill:#C4A174;" d="M282.072,340.79c5.178,0,9.272,4.457,8.758,9.609c-4.819,48.228-45.52,85.886-95.017,85.886
	s-90.198-37.658-95.017-85.886c-0.514-5.153,3.578-9.609,8.758-9.609L282.072,340.79L282.072,340.79z"/>
<path style="fill:#B58E64;" d="M141.094,350.399c4.146,41.489,34.857,75.131,74.868,83.729c-6.499,1.396-13.233,2.156-20.149,2.156
	c-49.497,0-90.198-37.658-95.017-85.886c-0.514-5.153,3.578-9.609,8.757-9.609h40.298
	C144.672,340.79,140.578,345.246,141.094,350.399z"/>
<path d="M437.02,74.981C388.668,26.629,324.382,0.001,256.001,0.001c-47.481,0-93.842,13.097-134.07,37.873
	c-4.179,2.574-5.482,8.05-2.906,12.231c2.576,4.182,8.05,5.482,12.231,2.907c37.422-23.049,80.56-35.233,124.746-35.233
	c131.356,0,238.221,106.866,238.221,238.221c0,131.356-106.865,238.222-238.221,238.222S17.779,387.357,17.779,256.001
	c0-71.355,31.599-138.357,86.695-183.826c3.787-3.125,4.323-8.728,1.198-12.515c-3.124-3.787-8.727-4.321-12.514-1.198
	C33.954,107.321,0,179.321,0,256.001c0,68.38,26.629,132.668,74.982,181.02c48.352,48.352,112.638,74.981,181.02,74.981
	c68.379,0,132.668-26.629,181.02-74.981s74.981-112.64,74.981-181.02S485.372,123.333,437.02,74.981z"/>
<path d="M297.124,419.202c0.756,0,1.524-0.097,2.29-0.301C373.091,399.315,424.548,332.327,424.548,256
	c0-18.882-3.102-37.424-9.219-55.113c-1.605-4.639-6.662-7.102-11.306-5.496c-4.64,1.605-7.101,6.667-5.496,11.306
	c5.469,15.815,8.242,32.402,8.242,49.301c0,68.278-46.024,128.201-111.924,145.72c-4.745,1.261-7.569,6.13-6.307,10.875
	C289.596,416.574,293.191,419.202,297.124,419.202z"/>
<path d="M210.136,93.771c-34.638,9.775-65.85,30.96-87.887,59.656C99.486,183.067,87.454,218.537,87.454,256
	c0,20.709,3.716,40.936,11.041,60.121c1.354,3.543,4.727,5.72,8.307,5.72c1.054,0,2.126-0.188,3.169-0.588
	c4.586-1.752,6.885-6.89,5.133-11.476c-6.551-17.153-9.872-35.246-9.872-53.778c0-67.213,45.123-126.887,109.733-145.119
	c4.724-1.333,7.474-6.245,6.141-10.969C219.772,95.189,214.864,92.439,210.136,93.771z"/>
<path d="M257.91,107.173c15.969-14.536,36.667-22.542,58.28-22.542c20.031,0,39.563,6.996,54.998,19.702
	c3.788,3.118,9.392,2.578,12.514-1.214c3.12-3.79,2.577-9.393-1.214-12.513c-18.609-15.318-42.153-23.755-66.298-23.755
	c-26.05,0-50.997,9.65-70.248,27.173c-19.117,17.403-31.055,41.097-33.615,66.718c-0.493,4.931,1.137,9.872,4.47,13.554
	c3.351,3.704,8.138,5.828,13.132,5.828h49.218v7.075c0,7.328-0.417,14.737-1.236,22.016c-0.825,7.281-2.073,14.596-3.706,21.742
	c-2.943,12.853,0.082,26.138,8.3,36.451c8.22,10.314,20.496,16.23,33.683,16.23c23.757,0,43.085-19.287,43.085-42.996
	c0-3.245-0.371-6.506-1.101-9.685c-3.28-14.321-4.941-29.043-4.941-43.758v-7.075h49.217c4.995,0,9.782-2.124,13.132-5.828
	c3.334-3.683,4.964-8.624,4.47-13.554c-1.489-14.907-6.064-29.025-13.598-41.962c-2.471-4.242-7.913-5.68-12.156-3.208
	c-4.242,2.47-5.678,7.913-3.208,12.155c6.217,10.675,10.002,22.322,11.255,34.619l-172.314,0.023
	C232.184,141.18,242.081,121.582,257.91,107.173z M340.844,234.932c0.431,1.881,0.651,3.802,0.651,5.712
	c0,13.904-11.352,25.217-25.306,25.217c-7.743,0-14.953-3.474-19.779-9.531c-4.825-6.055-6.602-13.857-4.873-21.405
	c1.781-7.793,3.141-15.768,4.042-23.711c0.895-7.943,1.349-16.022,1.349-24.013v-7.075h38.526v7.075
	C335.452,203.248,337.267,219.306,340.844,234.932z"/>
<path d="M216.424,300.788c-0.895,7.944-1.349,16.023-1.349,24.013v7.075H109.552c-4.995,0-9.781,2.124-13.131,5.828
	c-3.334,3.683-4.964,8.624-4.47,13.556c2.56,25.621,14.498,49.316,33.615,66.719c19.25,17.523,44.198,27.173,70.248,27.173
	s50.996-9.65,70.247-27.173c19.118-17.403,31.056-41.097,33.616-66.719c0.493-4.932-1.137-9.872-4.47-13.556
	c-3.352-3.704-8.138-5.828-13.132-5.828h-49.218v-7.075c0-7.328,0.417-14.737,1.236-22.016c0.825-7.281,2.073-14.596,3.706-21.742
	c2.943-12.853-0.082-26.138-8.3-36.45c-8.22-10.314-20.498-16.23-33.685-16.23c-23.757,0-43.085,19.287-43.085,42.996
	c0,3.239,0.371,6.499,1.101,9.685c2.449,10.697,4.007,21.684,4.627,32.658c0.277,4.902,4.477,8.649,9.378,8.373
	c4.902-0.277,8.65-4.475,8.373-9.378c-0.678-11.969-2.376-23.954-5.049-35.624c-0.433-1.887-0.652-3.809-0.652-5.714
	c0-13.904,11.352-25.217,25.306-25.217c7.743,0,14.953,3.474,19.781,9.532c4.825,6.055,6.602,13.855,4.873,21.404
	C218.684,284.869,217.324,292.844,216.424,300.788z M254.092,404.829c-15.97,14.536-36.667,22.542-58.28,22.542
	s-42.311-8.005-58.28-22.542c-15.824-14.404-25.719-33.993-27.877-55.174h172.312C279.811,370.836,269.915,390.424,254.092,404.829z
	"/>
<g>
</g>
<g>
</g>
<g>
</g>
<g>
</g>
<g>
</g>
<g>
</g>
<g>
</g>
<g>
</g>
<g>
</g>
<g>
</g>
<g>
</g>
<g>
</g>
<g>
</g>
<g>
</g>
<g>
</g>
</svg>
