<?xml version="1.0" encoding="utf-8"?>
<!-- Generator: Adobe Illustrator 16.0.0, SVG Export Plug-In . SVG Version: 6.00 Build 0)  -->
<!DOCTYPE svg PUBLIC "-//W3C//DTD SVG 1.1//EN" "http://www.w3.org/Graphics/SVG/1.1/DTD/svg11.dtd">
<svg version="1.1" xmlns="http://www.w3.org/2000/svg" xmlns:xlink="http://www.w3.org/1999/xlink" x="0px" y="0px" width="100px"
	 height="100px" viewBox="0 0 100 100" enable-background="new 0 0 100 100" xml:space="preserve">
<g id="fill">
	<g>
		<polygon fill="#A8A094" points="37.581,12.606 37.581,8.708 26.816,8.708 26.816,12.606 26.816,18.703 26.816,28.698 
			37.581,28.698 37.581,18.703 		"/>
		<rect x="46.109" y="22.102" fill="#B0BB9E" width="7.233" height="6.284"/>
		<polygon fill="#A8A094" points="72.84,12.606 72.84,8.708 62.074,8.708 62.074,12.606 62.074,18.703 62.074,28.698 72.84,28.698 
			72.84,18.703 		"/>
		<path fill="#A8A094" d="M80.308,28.386c-20.388,0-40.776,0-61.164,0C12.494,40.612,7.87,53.883,8.512,66.109
			c2.771,0,5.541,0,8.312,0l-2.476,21.664h20.574V66.109c9.768,0,19.534,0,29.303,0v21.664h20.574l-2.476-21.664
			c2.872,0,5.745,0,8.617,0C91.582,53.883,86.959,40.612,80.308,28.386z"/>
		<polygon fill="#B0BB9E" points="34.922,87.772 14.348,87.772 15.026,80.921 34.922,80.921 		"/>
		<polygon fill="#B0BB9E" points="64.225,87.772 84.799,87.772 84.119,80.921 64.225,80.921 		"/>
		<rect x="24.364" y="12.126" fill="#B0BB9E" width="15.362" height="6.097"/>
		<rect x="59.93" y="12.126" fill="#B0BB9E" width="15.359" height="6.097"/>
	</g>
</g>
<g id="outline">
	<g>
		
			<path fill="none" stroke="#4C4C4C" stroke-width="1.5" stroke-linecap="round" stroke-linejoin="round" stroke-miterlimit="10" d="
			M10.406,68.109c-0.642-12.226,3.982-25.497,10.632-37.723c20.388,0,40.776,0,61.164,0c6.65,12.226,11.274,25.497,10.633,37.723
			C65.359,68.109,37.882,68.109,10.406,68.109z"/>
		<g>
			
				<rect x="44.528" y="30.386" fill="none" stroke="#4C4C4C" stroke-width="1.5" stroke-linecap="round" stroke-linejoin="round" stroke-miterlimit="10" width="6.951" height="37.723"/>
			
				<polyline fill="none" stroke="#4C4C4C" stroke-width="1.5" stroke-linecap="round" stroke-linejoin="round" stroke-miterlimit="10" points="
				51.761,68.109 58.712,68.109 58.712,30.386 51.761,30.386 			"/>
		</g>
		
			<rect x="48.004" y="24.102" fill="none" stroke="#4C4C4C" stroke-width="1.5" stroke-linecap="round" stroke-linejoin="round" stroke-miterlimit="10" width="7.233" height="6.284"/>
		<g>
			
				<polyline fill="none" stroke="#4C4C4C" stroke-width="1.5" stroke-linecap="round" stroke-linejoin="round" stroke-miterlimit="10" points="
				39.321,14.126 39.321,10.228 28.558,10.228 28.558,14.126 			"/>
			
				<line fill="none" stroke="#4C4C4C" stroke-width="1.5" stroke-linecap="round" stroke-linejoin="round" stroke-miterlimit="10" x1="39.321" y1="30.218" x2="39.321" y2="20.223"/>
			
				<line fill="none" stroke="#4C4C4C" stroke-width="1.5" stroke-linecap="round" stroke-linejoin="round" stroke-miterlimit="10" x1="28.558" y1="20.223" x2="28.558" y2="30.218"/>
		</g>
		
			<rect x="61.67" y="14.126" fill="none" stroke="#4C4C4C" stroke-width="1.5" stroke-linecap="round" stroke-linejoin="round" stroke-miterlimit="10" width="15.36" height="6.097"/>
		<g>
			
				<polyline fill="none" stroke="#4C4C4C" stroke-width="1.5" stroke-linecap="round" stroke-linejoin="round" stroke-miterlimit="10" points="
				74.733,14.126 74.733,10.228 63.968,10.228 63.968,14.126 			"/>
			
				<line fill="none" stroke="#4C4C4C" stroke-width="1.5" stroke-linecap="round" stroke-linejoin="round" stroke-miterlimit="10" x1="74.733" y1="30.218" x2="74.733" y2="20.223"/>
			
				<line fill="none" stroke="#4C4C4C" stroke-width="1.5" stroke-linecap="round" stroke-linejoin="round" stroke-miterlimit="10" x1="63.968" y1="20.223" x2="63.968" y2="30.218"/>
		</g>
		<g>
			
				<line fill="none" stroke="#4C4C4C" stroke-width="1.5" stroke-linecap="round" stroke-linejoin="round" stroke-miterlimit="10" x1="63.864" y1="14.126" x2="63.864" y2="20.223"/>
			
				<line fill="none" stroke="#4C4C4C" stroke-width="1.5" stroke-linecap="round" stroke-linejoin="round" stroke-miterlimit="10" x1="74.836" y1="14.126" x2="74.836" y2="20.223"/>
			
				<line fill="none" stroke="#4C4C4C" stroke-width="1.5" stroke-linecap="round" stroke-linejoin="round" stroke-miterlimit="10" x1="71.178" y1="14.126" x2="71.178" y2="20.223"/>
			
				<line fill="none" stroke="#4C4C4C" stroke-width="1.5" stroke-linecap="round" stroke-linejoin="round" stroke-miterlimit="10" x1="67.522" y1="14.126" x2="67.522" y2="20.223"/>
		</g>
		<g>
			
				<rect x="26.258" y="14.126" fill="none" stroke="#4C4C4C" stroke-width="1.5" stroke-linecap="round" stroke-linejoin="round" stroke-miterlimit="10" width="15.363" height="6.097"/>
			<g>
				
					<line fill="none" stroke="#4C4C4C" stroke-width="1.5" stroke-linecap="round" stroke-linejoin="round" stroke-miterlimit="10" x1="28.452" y1="14.126" x2="28.452" y2="20.223"/>
				
					<line fill="none" stroke="#4C4C4C" stroke-width="1.5" stroke-linecap="round" stroke-linejoin="round" stroke-miterlimit="10" x1="39.427" y1="14.126" x2="39.427" y2="20.223"/>
				
					<line fill="none" stroke="#4C4C4C" stroke-width="1.5" stroke-linecap="round" stroke-linejoin="round" stroke-miterlimit="10" x1="35.769" y1="14.126" x2="35.769" y2="20.223"/>
				
					<line fill="none" stroke="#4C4C4C" stroke-width="1.5" stroke-linecap="round" stroke-linejoin="round" stroke-miterlimit="10" x1="32.11" y1="14.126" x2="32.11" y2="20.223"/>
			</g>
		</g>
		
			<polyline fill="none" stroke="#4C4C4C" stroke-width="1.5" stroke-linecap="round" stroke-linejoin="round" stroke-miterlimit="10" points="
			36.815,68.109 36.815,89.772 16.241,89.772 18.717,68.109 		"/>
		
			<polyline fill="none" stroke="#4C4C4C" stroke-width="1.5" stroke-linecap="round" stroke-linejoin="round" stroke-miterlimit="10" points="
			66.118,68.109 66.118,89.772 86.692,89.772 84.217,68.109 		"/>
		
			<line fill="none" stroke="#4C4C4C" stroke-width="1.5" stroke-linecap="round" stroke-linejoin="round" stroke-miterlimit="10" x1="17.488" y1="82.921" x2="36.815" y2="82.921"/>
		
			<line fill="none" stroke="#4C4C4C" stroke-width="1.5" stroke-linecap="round" stroke-linejoin="round" stroke-miterlimit="10" x1="85.523" y1="82.921" x2="66.118" y2="82.921"/>
	</g>
</g>
</svg>
