<?xml version="1.0" encoding="utf-8"?>
<!-- Generator: Adobe Illustrator 16.0.0, SVG Export Plug-In . SVG Version: 6.00 Build 0)  -->
<!DOCTYPE svg PUBLIC "-//W3C//DTD SVG 1.1//EN" "http://www.w3.org/Graphics/SVG/1.1/DTD/svg11.dtd">
<svg version="1.1" xmlns="http://www.w3.org/2000/svg" xmlns:xlink="http://www.w3.org/1999/xlink" x="0px" y="0px" width="100px"
	 height="100px" viewBox="0 0 100 100" enable-background="new 0 0 100 100" xml:space="preserve">
<g id="fill">
	<g>
		<path fill="#A8A094" d="M73.174,85.956c0,2.054-1.666,3.719-3.72,3.719H32.727c-2.055,0-3.72-1.665-3.72-3.719V12.5
			c0-2.054,1.665-3.719,3.72-3.719h36.728c2.054,0,3.72,1.665,3.72,3.719V85.956z"/>
		<path fill="#B0BB9E" d="M73.174,40.918v45.038c0,2.054-1.666,3.719-3.72,3.719H32.727c-2.055,0-3.72-1.665-3.72-3.719V13.721
			L73.174,40.918z"/>
	</g>
</g>
<g id="outline">
	<g>
		
			<path fill="none" stroke="#4C4C4C" stroke-width="1.5" stroke-linecap="round" stroke-linejoin="round" stroke-miterlimit="10" d="
			M75.033,87.816c0,2.054-1.665,3.719-3.72,3.719H34.586c-2.054,0-3.72-1.666-3.72-3.719V14.36c0-2.054,1.666-3.72,3.72-3.72h36.728
			c2.055,0,3.72,1.666,3.72,3.72V87.816z"/>
		<g>
			
				<line fill="none" stroke="#4C4C4C" stroke-width="1.5" stroke-linecap="round" stroke-linejoin="round" stroke-miterlimit="10" x1="39.7" y1="11.105" x2="39.7" y2="20.713"/>
			
				<line fill="none" stroke="#4C4C4C" stroke-width="1.5" stroke-linecap="round" stroke-linejoin="round" stroke-miterlimit="10" x1="48.533" y1="11.105" x2="48.533" y2="26.292"/>
			
				<line fill="none" stroke="#4C4C4C" stroke-width="1.5" stroke-linecap="round" stroke-linejoin="round" stroke-miterlimit="10" x1="57.366" y1="11.105" x2="57.366" y2="31.678"/>
			
				<line fill="none" stroke="#4C4C4C" stroke-width="1.5" stroke-linecap="round" stroke-linejoin="round" stroke-miterlimit="10" x1="66.2" y1="11.105" x2="66.2" y2="37.45"/>
		</g>
		<g>
			
				<line fill="none" stroke="#4C4C4C" stroke-width="1.5" stroke-linecap="round" stroke-linejoin="round" stroke-miterlimit="10" x1="65.501" y1="36.908" x2="74.801" y2="36.908"/>
			
				<line fill="none" stroke="#4C4C4C" stroke-width="1.5" stroke-linecap="round" stroke-linejoin="round" stroke-miterlimit="10" x1="51.476" y1="28.075" x2="74.801" y2="28.075"/>
			
				<line fill="none" stroke="#4C4C4C" stroke-width="1.5" stroke-linecap="round" stroke-linejoin="round" stroke-miterlimit="10" x1="37.368" y1="19.241" x2="74.801" y2="19.241"/>
		</g>
		<g>
			
				<path fill="none" stroke="#4C4C4C" stroke-width="1.5" stroke-linecap="round" stroke-linejoin="round" stroke-miterlimit="10" d="
				M74.801,89.443"/>
			
				<path fill="none" stroke="#4C4C4C" stroke-width="1.5" stroke-linecap="round" stroke-linejoin="round" stroke-miterlimit="10" d="
				M31.099,89.443"/>
			
				<path fill="none" stroke="#4C4C4C" stroke-width="1.5" stroke-linecap="round" stroke-linejoin="round" stroke-miterlimit="10" d="
				M74.801,80.61"/>
			
				<path fill="none" stroke="#4C4C4C" stroke-width="1.5" stroke-linecap="round" stroke-linejoin="round" stroke-miterlimit="10" d="
				M31.099,80.61"/>
			
				<path fill="none" stroke="#4C4C4C" stroke-width="1.5" stroke-linecap="round" stroke-linejoin="round" stroke-miterlimit="10" d="
				M74.801,71.776"/>
			
				<path fill="none" stroke="#4C4C4C" stroke-width="1.5" stroke-linecap="round" stroke-linejoin="round" stroke-miterlimit="10" d="
				M31.099,71.776"/>
			
				<path fill="none" stroke="#4C4C4C" stroke-width="1.5" stroke-linecap="round" stroke-linejoin="round" stroke-miterlimit="10" d="
				M74.801,62.943"/>
			
				<path fill="none" stroke="#4C4C4C" stroke-width="1.5" stroke-linecap="round" stroke-linejoin="round" stroke-miterlimit="10" d="
				M31.099,62.943"/>
			
				<path fill="none" stroke="#4C4C4C" stroke-width="1.5" stroke-linecap="round" stroke-linejoin="round" stroke-miterlimit="10" d="
				M95.257,54.11"/>
		</g>
		
			<polygon fill="none" stroke="#4C4C4C" stroke-width="1.5" stroke-linecap="round" stroke-linejoin="round" stroke-miterlimit="10" points="
			30.866,15.135 75.033,43.029 44.813,56.047 		"/>
		
			<line fill="none" stroke="#4C4C4C" stroke-width="1.5" stroke-linecap="round" stroke-linejoin="round" stroke-miterlimit="10" x1="31.099" y1="77.123" x2="75.033" y2="77.123"/>
		
			<line fill="none" stroke="#4C4C4C" stroke-width="1.5" stroke-linecap="round" stroke-linejoin="round" stroke-miterlimit="10" x1="31.099" y1="62.71" x2="74.801" y2="62.71"/>
		
			<line fill="none" stroke="#4C4C4C" stroke-width="1.5" stroke-linecap="round" stroke-linejoin="round" stroke-miterlimit="10" x1="31.099" y1="49.228" x2="42.489" y2="49.228"/>
		
			<line fill="none" stroke="#4C4C4C" stroke-width="1.5" stroke-linecap="round" stroke-linejoin="round" stroke-miterlimit="10" x1="60.766" y1="49.228" x2="75.033" y2="49.228"/>
		
			<line fill="none" stroke="#4C4C4C" stroke-width="1.5" stroke-linecap="round" stroke-linejoin="round" stroke-miterlimit="10" x1="31.099" y1="34.816" x2="37.53" y2="34.816"/>
		
			<line fill="none" stroke="#4C4C4C" stroke-width="1.5" stroke-linecap="round" stroke-linejoin="round" stroke-miterlimit="10" x1="31.099" y1="21.333" x2="32.979" y2="21.333"/>
	</g>
</g>
</svg>
