<?xml version="1.0" encoding="utf-8"?>
<!-- Generator: Adobe Illustrator 16.0.0, SVG Export Plug-In . SVG Version: 6.00 Build 0)  -->
<!DOCTYPE svg PUBLIC "-//W3C//DTD SVG 1.1//EN" "http://www.w3.org/Graphics/SVG/1.1/DTD/svg11.dtd">
<svg version="1.1" xmlns="http://www.w3.org/2000/svg" xmlns:xlink="http://www.w3.org/1999/xlink" x="0px" y="0px" width="100px"
	 height="100px" viewBox="0 0 100 100" enable-background="new 0 0 100 100" xml:space="preserve">
<g id="fill">
	<g>
		<g>
			<rect x="17.431" y="83.123" fill="#B0BB9E" width="18.045" height="1.84"/>
			<rect x="67.129" y="83.123" fill="#B0BB9E" width="18.045" height="1.84"/>
			<g>
				<polygon fill="#B0BB9E" points="60.534,25.487 60.534,19.031 56.72,19.031 42.071,19.031 42.071,25.487 39.09,25.487 
					39.09,16.052 56.72,16.052 63.515,16.052 63.515,25.487 				"/>
			</g>
			<g>
				<path fill="#B0BB9E" d="M85.771,25.487c-0.55,0-1,0.45-1,1v3.111c0,0.55-0.45,1-1,1h-9.718c-0.55,0-1-0.45-1-1v-3.111
					c0-0.55-0.45-1-1-1H30.551c-0.55,0-1,0.45-1,1v3.111c0,0.55-0.45,1-1,1h-9.718c-0.55,0-1-0.45-1-1v-3.111c0-0.55-0.45-1-1-1
					H11.5c-0.55,0-1,0.45-1,1v55.061c0,0.55,0.45,1,1,1h79.604c0.55,0,1-0.45,1-1V26.487c0-0.55-0.45-1-1-1H85.771z"/>
			</g>
			<rect x="22.06" y="36.228" fill="#FFFFFF" width="58.167" height="35.578"/>
			<polygon fill="#A8A094" points="61.383,51.256 54.063,51.256 54.063,43.937 48.541,43.937 48.541,51.256 41.222,51.256 
				41.222,56.778 48.541,56.778 48.541,64.098 54.063,64.098 54.063,56.778 61.383,56.778 			"/>
		</g>
		<path fill="#FFFFFF" d="M18.674,30.598c-0.55,0-1-0.45-1-1v-2.73h11.718v2.73c0,0.55-0.45,1-1,1H18.674z"/>
		<path fill="#FFFFFF" d="M73.894,30.598c-0.55,0-1-0.45-1-1v-2.73h11.718v2.73c0,0.55-0.45,1-1,1H73.894z"/>
	</g>
</g>
<g id="outline">
	<g>
		
			<polyline fill="none" stroke="#4C4C4C" stroke-width="1.5" stroke-linecap="round" stroke-linejoin="round" stroke-miterlimit="10" points="
			35.317,83.123 35.317,84.963 17.271,84.963 17.271,83.123 		"/>
		
			<polyline fill="none" stroke="#4C4C4C" stroke-width="1.5" stroke-linecap="round" stroke-linejoin="round" stroke-miterlimit="10" points="
			85.015,83.123 85.015,84.963 66.97,84.963 66.97,83.123 		"/>
	</g>
	<g>
		
			<polyline fill="none" stroke="#4C4C4C" stroke-width="1.5" stroke-linecap="round" stroke-linejoin="round" stroke-miterlimit="10" points="
			38.931,25.487 38.931,16.052 56.561,16.052 63.355,16.052 63.355,25.487 		"/>
		
			<polyline fill="none" stroke="#4C4C4C" stroke-width="1.5" stroke-linecap="round" stroke-linejoin="round" stroke-miterlimit="10" points="
			41.911,25.487 41.911,19.031 56.561,19.031 60.375,19.031 60.375,25.487 		"/>
	</g>
	<path fill="none" stroke="#4C4C4C" stroke-width="1.5" stroke-linecap="round" stroke-linejoin="round" stroke-miterlimit="10" d="
		M85.612,25.487c-0.55,0-1,0.45-1,1v3.111c0,0.55-0.45,1-1,1h-9.718c-0.55,0-1-0.45-1-1v-3.111c0-0.55-0.45-1-1-1H30.392
		c-0.55,0-1,0.45-1,1v3.111c0,0.55-0.45,1-1,1h-9.718c-0.55,0-1-0.45-1-1v-3.111c0-0.55-0.45-1-1-1h-5.332c-0.55,0-1,0.45-1,1
		v55.061c0,0.55,0.45,1,1,1h79.603c0.55,0,1-0.45,1-1V26.487c0-0.55-0.45-1-1-1H85.612z"/>
	<g>
		
			<rect x="22.06" y="36.228" fill="none" stroke="#4C4C4C" stroke-width="1.5" stroke-linecap="round" stroke-linejoin="round" stroke-miterlimit="10" width="58.167" height="35.578"/>
	</g>
	
		<polygon fill="none" stroke="#4C4C4C" stroke-width="1.5" stroke-linecap="round" stroke-linejoin="round" stroke-miterlimit="10" points="
		61.224,51.256 53.904,51.256 53.904,43.937 48.382,43.937 48.382,51.256 41.062,51.256 41.062,56.778 48.382,56.778 48.382,64.098 
		53.904,64.098 53.904,56.778 61.224,56.778 	"/>
	<g>
		
			<line fill="none" stroke="#4C4C4C" stroke-width="1.5" stroke-linecap="round" stroke-linejoin="round" stroke-miterlimit="10" x1="17.674" y1="26.868" x2="29.392" y2="26.868"/>
		
			<line fill="none" stroke="#4C4C4C" stroke-width="1.5" stroke-linecap="round" stroke-linejoin="round" stroke-miterlimit="10" x1="72.894" y1="26.868" x2="84.612" y2="26.868"/>
	</g>
</g>
</svg>
