<?xml version="1.0" encoding="utf-8"?>
<!-- Generator: Adobe Illustrator 18.0.0, SVG Export Plug-In . SVG Version: 6.00 Build 0)  -->
<!DOCTYPE svg PUBLIC "-//W3C//DTD SVG 1.1 Basic//EN" "http://www.w3.org/Graphics/SVG/1.1/DTD/svg11-basic.dtd">
<svg version="1.1" baseProfile="basic" id="Arrow_1_"
	 xmlns="http://www.w3.org/2000/svg" xmlns:xlink="http://www.w3.org/1999/xlink" x="0px" y="0px" width="500px" height="500px"
	 viewBox="0 0 500 500" xml:space="preserve">
  <metadata>
    <?xpacket begin="﻿" id="W5M0MpCehiHzreSzNTczkc9d"?>
    <x:xmpmeta xmlns:x="adobe:ns:meta/" x:xmptk="Adobe XMP Core 5.6-c011 79.156380, 2014/06/19-23:40:37        ">
     <rdf:RDF xmlns:rdf="http://www.w3.org/1999/02/22-rdf-syntax-ns#">
      <rdf:Description rdf:about=""
        xmlns:xmpMM="http://ns.adobe.com/xap/1.0/mm/"
        xmlns:stEvt="http://ns.adobe.com/xap/1.0/sType/ResourceEvent#"
        xmlns:xmp="http://ns.adobe.com/xap/1.0/"
        xmlns:xmpRights="http://ns.adobe.com/xap/1.0/rights/"
        xmlns:dc="http://purl.org/dc/elements/1.1/"
       xmpMM:DocumentID="xmp.did:94e9059ff7c7d0fbdb67e5509a3c26fa"
       xmpMM:OriginalDocumentID="xmp.did:94e9059ff7c7d0fbdb67e5509a3c26fa"
       xmpMM:InstanceID="xmp.iid:94e9059ff7c7d0fbdb67e5509a3c26fa"
       xmp:ModifyDate="2015-04-15T15:09:12+02:00"
       xmp:MetadataDate="2015-04-15T15:09:12+02:00"
       xmpRights:Marked="True"
       xmpRights:WebStatement="http://www.adobe.com/legal/general-terms.html">
       <xmpMM:History>
        <rdf:Seq>
         <rdf:li
          stEvt:action="saved"
          stEvt:instanceID="xmp.iid:94e9059ff7c7d0fbdb67e5509a3c26fa"
          stEvt:when="2015-04-15T15:09:12+02:00"/>
        </rdf:Seq>
       </xmpMM:History>
       <xmpRights:UsageTerms>
        <rdf:Alt>
         <rdf:li xml:lang="x-default">This work is licensed under the Adobe General Terms of Use http://www.adobe.com/legal/general-terms.html.</rdf:li>
        </rdf:Alt>
       </xmpRights:UsageTerms>
       <dc:publisher>
        <rdf:Bag>
         <rdf:li>Adobe Systems Incorporated</rdf:li>
        </rdf:Bag>
       </dc:publisher>
      </rdf:Description>
     </rdf:RDF>
    </x:xmpmeta>
    <?xpacket end="r"?>
  </metadata>
<g>
	<g>
		<path d="M250.3,0C112.1,0,0,111.9,0,250c0,138.1,112.1,250,250.3,250C388.6,500,500,388.1,500,250C500,111.9,388.5,0,250.3,0z
			 M250.3,468.8c-120.8,0-219.1-98.1-219.1-218.8S129.5,31.2,250.3,31.2c120.5,0,218.4,98.1,218.4,218.8S370.8,468.8,250.3,468.8z"
			/>
	</g>
	<g>
		<path d="M343.8,226.6c21.6,0,39.1-17.5,39.1-39.1s-17.5-39.1-39.1-39.1c-21.5,0-39.1,17.5-39.1,39.1S322.2,226.6,343.8,226.6z
			 M343.8,164.1c13,0,23.5,10.5,23.5,23.4s-10.5,23.4-23.5,23.4c-12.9,0-23.4-10.5-23.4-23.4S330.8,164.1,343.8,164.1z"/>
	</g>
	<g>
		<path d="M156.3,226.6c21.6,0,39.1-17.5,39.1-39.1s-17.5-39.1-39.1-39.1c-21.5,0-39.1,17.5-39.1,39.1S134.7,226.6,156.3,226.6z
			 M156.3,164.1c13,0,23.5,10.5,23.5,23.4s-10.5,23.4-23.5,23.4c-12.9,0-23.4-10.5-23.4-23.4S143.3,164.1,156.3,164.1z"/>
	</g>
	<g>
		<path d="M250.2,296.9c-102.4,0-137.7,68.2-139.2,71.1c-3.8,7.7-0.7,17,7,20.9c7.6,3.8,17,0.8,20.9-6.8c1.2-2.2,28.9-54,111.3-54
			c82,0,109.7,51.8,110.8,53.9c2.7,5.5,8.3,8.6,14,8.6c2.4,0,4.8-0.5,7-1.6c7.7-3.9,10.8-13.2,7-21
			C387.5,365.1,352.2,296.9,250.2,296.9z"/>
	</g>
</g>
</svg>
