<svg id="Layer_1" data-name="Layer 1" xmlns="http://www.w3.org/2000/svg" viewBox="0 0 49 49"><defs><style>.cls-1{fill:#fcc0f1;}</style></defs><title>homebtn</title><g id="Shape_63" data-name="Shape 63"><circle class="cls-1" cx="24.5" cy="24.5" r="24.5"/><path d="M28.37,61.83a1.79,1.79,0,0,1,.09.6.65.65,0,0,1-.11-.58Z" transform="translate(-26.5 -13.5)"/><path d="M40.08,36l-2.79.35a.73.73,0,0,1-.27-.44l-.38.19.15-.41A2.07,2.07,0,0,0,39.55,35a1.52,1.52,0,0,1-.25.66,3.62,3.62,0,0,0,1-.21,1,1,0,0,0,.66-.54c.09-.28-.16-.66-.44-.56a.71.71,0,0,1,.86.73,1.7,1.7,0,0,0-.7.66l1.84-1.2c-.1.06,0,.22.06.27a.48.48,0,0,0,.33,0,11.82,11.82,0,0,1,3.47-.62,3,3,0,0,1-2.06.56l2.44,2.38a1,1,0,0,0,.74.38.87.87,0,0,1,.79,1.26,1.15,1.15,0,0,0-1-1,8.09,8.09,0,0,0,.44,3.25,34.86,34.86,0,0,1,.74,5.55c0,.22-.06.53-.27.51l-.61-5.17c-.06-.47-.29-1.08-.76-1l-.83.13a.93.93,0,0,1-.85-.16c-.2-.23.08-.7.32-.52a2.63,2.63,0,0,0,1.73.26.84.84,0,0,0-.44-1,2.45,2.45,0,0,0-1.14-.21L43,39.27l.06-.5a14.69,14.69,0,0,0,3,.32c.42,0,1-.16,1-.58a9.35,9.35,0,0,1-3.24-.12l.11-.35a2.08,2.08,0,0,0,1.12.08l.28.31a1.54,1.54,0,0,1,.86-.23c.3,0,.65-.22.65-.52a.75.75,0,0,0-.31-.5l-2-1.88a1.3,1.3,0,0,0-.59-.38c-.62-.12-1.35.65-1.81.21l-1,.94A1.61,1.61,0,0,0,40.08,36Z" transform="translate(-26.5 -13.5)"/><path d="M32.74,35.84l.81-.12c0,.48.6.71,1.08.81q3.58.8,7.22,1.28a1,1,0,0,0,.79-.13.48.48,0,0,1,.71.64.58.58,0,0,0-.9-.34,1.26,1.26,0,0,1-1,.14,44.66,44.66,0,0,1-8.06-1.7C33.09,36.32,32.75,36.15,32.74,35.84Z" transform="translate(-26.5 -13.5)"/><path d="M44.15,40.76l.36-.42c.14,0,.14.27,0,.37a.65.65,0,0,1-.42.13,35.1,35.1,0,0,1-7.93-.44c-.06-.13.15-.21.29-.2l2,.12.95.06,3.92.23A1.91,1.91,0,0,1,44.15,40.76Z" transform="translate(-26.5 -13.5)"/><path d="M48.16,50.92q-.36,1.56-.77,3.11c0,.16-.11.35-.27.4a1.26,1.26,0,0,1,0-.93,37,37,0,0,0,1.08-5.67.56.56,0,0,1,.09-.3.19.19,0,0,1,.27,0,.28.28,0,0,1,0,.23l-.34,2c0,.23,0,.46,0,.69A3.22,3.22,0,0,1,48.16,50.92Z" transform="translate(-26.5 -13.5)"/><path d="M30,37.63c.28,0,.53.16.74.35a7.55,7.55,0,0,0,3.78,1.74,2.22,2.22,0,0,1,1.26.42.82.82,0,0,1-.64.09,11.36,11.36,0,0,1-3.88-1.3A2.36,2.36,0,0,1,30,37.63Z" transform="translate(-26.5 -13.5)"/><path d="M49.63,55.16A2.06,2.06,0,0,1,50,56.71c.51-.07.66-.73.69-1.24a3,3,0,0,0,.41,1.25l.39-1.26.29,1.19a1.54,1.54,0,0,0,.38-1.27l.49,1.1a2,2,0,0,0,.51-1.43l.41,1.27L54,54.9a1.66,1.66,0,0,1,.16,1c.72-.06.76-1.09.6-1.8a30.81,30.81,0,0,1,.12-13.83c.26-1.09.53-2.38-.23-3.2l.67.42.14-.55,1.16-.1-1.14.71.67.44a.48.48,0,0,0-.55.57l4.5-.51c.33,0,.77,0,.84.33a2.54,2.54,0,0,0-2,.27A33.19,33.19,0,0,0,69.83,37.2a14.35,14.35,0,0,0-6.6,0l.56-.61A39.42,39.42,0,0,1,58.73,35a1.37,1.37,0,0,1-.81.81,1,1,0,0,1,.42-.85,17.21,17.21,0,0,0-1.83-.55l-1,1a1.49,1.49,0,0,1,.36-1l-2-.12-.63,1.88a3.46,3.46,0,0,1,.2-2.07,12.86,12.86,0,0,1-2.77.07l-.27,1.13A1.75,1.75,0,0,0,49.65,34l-2.21.28a.61.61,0,0,0-.46.2c-.12.18,0,.42.09.62l.83,1.53c.13.23.3.5.57.5.42,0,.5-.61.35-1s-.4-.83-.17-1.18a9.11,9.11,0,0,1,1,4.23,2.56,2.56,0,0,1-.37-1.67,2.17,2.17,0,0,1-1.85-.95,6.4,6.4,0,0,1-.87-2c.05-.62.87-.8,1.49-.8,3.93,0,7.94-.06,11.71,1.07,1.23.37,2.42.86,3.67,1.18a14,14,0,0,0,5.56.3c.92-.14,1.43,1.24.91,2a3.48,3.48,0,0,1-2.45,1.16,41.9,41.9,0,0,1-10.42.4c0-.36.5-.45.86-.42a36,36,0,0,0,9.46-.39c.93-.16,2-.56,2.17-1.5a33.48,33.48,0,0,1-10.05,1.45c-.37,0-.88-.17-.81-.53a1.05,1.05,0,0,1-1.68.18,2.64,2.64,0,0,1-1.5.32l1.12.65a1.81,1.81,0,0,0-1.08.05.63.63,0,0,0-.28.91.9.9,0,0,0,.6.22,41,41,0,0,0,9.21-.09c2.12-.26,4.36-.76,5.88-2.27s1.9-4.32.26-5.69a2,2,0,0,1-1.71.31,1.07,1.07,0,0,1-.67-1.43,1.08,1.08,0,0,0-.28-1.24,5,5,0,0,0-1.14-.73c-2.62-1.48-3.75-4.73-6.17-6.53a13.93,13.93,0,0,0-3.49-1.69l-4.82-1.8c-.32-.12-.81-.17-.9.17a1.08,1.08,0,0,1-2.12-.39c0-.46-.58-.66-1-.65a10.11,10.11,0,0,0-8.22,4.63c0,.4.57.59.91.38a1.71,1.71,0,0,0,.62-1A1,1,0,0,1,41,24.18a1.33,1.33,0,0,0-1.48.42,3.9,3.9,0,0,0-.7,1.47,1.11,1.11,0,1,1-.79,1,38.64,38.64,0,0,1-4.6,4.37,1,1,0,0,1,.12,1.47l-.23-1.24a2.45,2.45,0,0,0-1.2,1.13,1.9,1.9,0,0,0,1.12.24A.84.84,0,0,1,31.87,33a5.17,5.17,0,0,0-1.8,4.71A3.54,3.54,0,0,1,30.34,34a12.42,12.42,0,0,1,2.77-2.73,29,29,0,0,0,3.8-3.69c2.15-2.55,3.77-5.64,6.56-7.48a9.79,9.79,0,0,1,7-1.45,19.38,19.38,0,0,1,3.36,1l4.07,1.5a14.54,14.54,0,0,1,3.32,1.55c2.22,1.54,3.42,4.19,5.45,6,1.1,1,2.42,1.68,3.59,2.58A6,6,0,0,1,72.7,34.8a5.05,5.05,0,0,1-2.44,4.78,12.11,12.11,0,0,1-5.4,1.6,43.28,43.28,0,0,1-9.59,0c-.13,0-.2.14-.22.27a29.66,29.66,0,0,0,.26,13.36c.22.89-.81,1.56-1.69,1.8a11.21,11.21,0,0,1-5.11.2,2.49,2.49,0,0,1-1.42-.65,1,1,0,0,1,0-1.41,1.6,1.6,0,0,0,.55,1.43l.47-1.63c.31.23.13.71,0,1.08s.1,1,.45.79l.47-3.47,0,3a.9.9,0,0,0,.14.61c.14.16.46.16.52,0l-.07-1.32M69,31.62a1.15,1.15,0,0,0,.49,1.07,1.13,1.13,0,0,0,1.17,0,.45.45,0,0,0,.17-.15c.14-.24-.11-.5-.33-.66l-1-.71a.31.31,0,0,0-.38,0,.6.6,0,0,0-.16.37m-29.28-5.1A.84.84,0,1,0,39,28c.37.08.66-.3.83-.64A.89.89,0,0,0,40,27a.6.6,0,0,0-.23-.47M50.28,19a.36.36,0,0,0-.15.25,1.06,1.06,0,0,0,.31.86.79.79,0,0,0,.6.32c.34,0,.55-.36.69-.67s.12-.42-.06-.47q-.52-.16-1-.29a.47.47,0,0,0-.35,0M69,36.8a.27.27,0,0,0,.1-.17l-.18-.11a.26.26,0,0,0-.1.17l.18.1M55.33,39.61a.14.14,0,0,0,.08-.2.25.25,0,0,0-.18,0,.2.2,0,0,0,.11.17Z" transform="translate(-26.5 -13.5)"/><path d="M40.34,30.32a1.2,1.2,0,0,1,1-.65,1.08,1.08,0,0,1,.33,0,1.23,1.23,0,0,1,.59.35,1.66,1.66,0,0,1,.5,1,1.16,1.16,0,0,1-.36,1,1.14,1.14,0,0,1-1,.21,1.53,1.53,0,0,1-.85-.66,1.32,1.32,0,0,1-.15-1.23m2.09.6a1.21,1.21,0,0,0-.26-.56,1,1,0,0,0-1-.31.86.86,0,0,0-.62.79,1,1,0,0,0,.35.73,1.12,1.12,0,0,0,.77.33.78.78,0,0,0,.69-.42A.92.92,0,0,0,42.43,30.92Z" transform="translate(-26.5 -13.5)"/><path d="M52,36.09a1.06,1.06,0,0,0,1.28.2c0,.23,0,.51.18.63a.51.51,0,0,0,.58-.15,2.77,2.77,0,0,1,.45-.46c.18-.11.48-.08.55.12a1.85,1.85,0,0,0-1.25,1,3.67,3.67,0,0,0-.27,1.34l-.08,1.08c-.17,0-.26-.23-.28-.4a5,5,0,0,1,.16-1.26A1.35,1.35,0,0,0,53,37a2.68,2.68,0,0,0-.52.92l-.33-.81a.79.79,0,0,0,.65-.17c0-.16-.16-.27-.32-.31a1.58,1.58,0,0,1-.46-.12C51.89,36.4,51.83,36.18,52,36.09Z" transform="translate(-26.5 -13.5)"/><path d="M37.75,32.76a1.93,1.93,0,0,0-.3-.87.66.66,0,0,0-.82-.23,1,1,0,0,0-.55.79.73.73,0,0,0,.51.62,1.35,1.35,0,0,0,.84,0A2.56,2.56,0,0,1,38,33a.5.5,0,0,0,.47-.29c.13.16-.09.37-.28.46a2.33,2.33,0,0,1-1.65.22,1.09,1.09,0,0,1-.75-1.32,1.66,1.66,0,0,1,.84-.75.71.71,0,0,1,.73.09,2,2,0,0,1,.49.59.86.86,0,0,1,.17.44A.3.3,0,0,1,37.75,32.76Z" transform="translate(-26.5 -13.5)"/><path d="M59.16,28.93c.36.17.84-.27,1.17,0a1.08,1.08,0,0,1-.73.28,1.41,1.41,0,0,1,.14,1.07.93.93,0,1,1-1.41-1.07c.13-.09.29-.15.36-.29s0-.36-.19-.3l0-.2c.3,0,.41.42.68.55m-.84,1.24a.57.57,0,0,0,.79.27.74.74,0,0,0,.32-.82.56.56,0,0,0-.28-.37c-.29-.14-.64.11-.78.41A.7.7,0,0,0,58.33,30.18Z" transform="translate(-26.5 -13.5)"/><path d="M63.8,32.55a1.37,1.37,0,0,1-.94.38,1.76,1.76,0,0,1-.5-.12,1.29,1.29,0,0,1-.65-1,1,1,0,0,1,.15-.78.45.45,0,0,1,.7,0,.8.8,0,1,0,1.06.59.78.78,0,0,0-.56-.59c-.12,0-.29-.09-.25-.21s.24-.13.37-.08A1.3,1.3,0,0,1,63.8,32.55Z" transform="translate(-26.5 -13.5)"/><path d="M66,30.92a.53.53,0,0,0,.19-.18.46.46,0,0,0,0-.19A3,3,0,0,1,67,31.74,1,1,0,0,1,66.54,33a.93.93,0,0,1-1.18-.71A1.42,1.42,0,0,1,66,30.92m.62,1.52a.84.84,0,0,0,0-.87.5.5,0,0,0-.48-.29.57.57,0,0,0-.39.39.87.87,0,0,0,0,.7.5.5,0,0,0,.61.26A.54.54,0,0,0,66.6,32.44Z" transform="translate(-26.5 -13.5)"/><path d="M61,36.21c.1.09,0,.25-.12.33a2.6,2.6,0,0,1-1.29.44c-.05,0-.12,0-.14.06a.53.53,0,0,1-.32.23q-1.27.49-2.57.89c-.12-.13,0-.36.13-.45a1.51,1.51,0,0,1,.53-.12,3.05,3.05,0,0,0,.68-.22l2-.85A3.06,3.06,0,0,1,61,36.21Z" transform="translate(-26.5 -13.5)"/><path d="M52.52,29c0-.13.12-.3.25-.28s.33-.25.37-.47.15-.49.37-.47c.06.14,0,.28-.13.41s-.1.34,0,.39a1,1,0,0,1,.72.94.94.94,0,0,1-.74.91.87.87,0,0,1-1-.62,1.63,1.63,0,0,1,.08-.82m1.31.61a.7.7,0,0,0-.19-.43.67.67,0,0,0-.24-.2.48.48,0,0,0-.56.17.59.59,0,0,0,0,.6.6.6,0,0,0,.58.33A.5.5,0,0,0,53.83,29.56Z" transform="translate(-26.5 -13.5)"/><path d="M45.21,25.56a.71.71,0,0,1,.43.24,1.28,1.28,0,0,1,.25,1.46,1,1,0,0,1-1.35.36,1.31,1.31,0,0,1-.38-.51,1.06,1.06,0,0,1-.1-.86,1.28,1.28,0,0,1,.69-.56.92.92,0,0,1,.46-.13m-.87,1.21a.74.74,0,0,0,.67.66.7.7,0,0,0,.71-.6,1.23,1.23,0,0,0-.17-.64.59.59,0,0,0-.23-.29.47.47,0,0,0-.36,0A.89.89,0,0,0,44.35,26.77Z" transform="translate(-26.5 -13.5)"/><path d="M51.33,24.6a1.07,1.07,0,0,1-.37.89.85.85,0,0,1-.94.1,1.16,1.16,0,0,1-.48-1,1.14,1.14,0,0,1,.09-.52.85.85,0,0,1,1-.4,1.07,1.07,0,0,1,.67.93m-1-.62a.7.7,0,0,0-.39.92.68.68,0,0,0,.3.38.58.58,0,0,0,.69-.14.73.73,0,0,0,.11-.72A.65.65,0,0,0,50.28,24Z" transform="translate(-26.5 -13.5)"/><path d="M47,23.44a.58.58,0,0,1-.27-.11.78.78,0,0,1-.16-.2,1.87,1.87,0,0,1-.32-.79.82.82,0,0,1,1.33-.79A1.11,1.11,0,0,1,48,22.75a1,1,0,0,1-1,.7m-.53-1.19a.67.67,0,0,0,.22.67.66.66,0,1,0-.07-.95A.66.66,0,0,0,46.48,22.25Z" transform="translate(-26.5 -13.5)"/><path d="M62.21,27.38a1.84,1.84,0,0,1-.55.23.66.66,0,0,1-.73-.38,1.37,1.37,0,0,1-.06-.88A.9.9,0,0,1,61,26.1a.67.67,0,0,1,.22-.23.92.92,0,0,1,1,1.51m.09-.74a.57.57,0,0,0-.79-.53.75.75,0,0,0-.3,1,.35.35,0,0,0,.17.18.36.36,0,0,0,.22,0,1.09,1.09,0,0,0,.47-.25A.67.67,0,0,0,62.3,26.64Z" transform="translate(-26.5 -13.5)"/><path d="M50.85,36.63a1.39,1.39,0,0,1,.53.24A1.41,1.41,0,0,1,51.71,38v.84c-.33-.11-.36-.56-.32-.91s0-.8-.32-.91a1.23,1.23,0,0,0-.24,1.49c.07.11-.08.26-.21.22a.33.33,0,0,1-.21-.3c0-.13,0-.26,0-.39a.79.79,0,0,0-.5-.69.24.24,0,0,1,.46,0c.19,0,.31-.26.2-.42a.61.61,0,0,0-.54-.19C50.18,36.5,50.56,36.55,50.85,36.63Z" transform="translate(-26.5 -13.5)"/><path d="M56.22,24.83a.79.79,0,0,1-.75-.12.83.83,0,0,1-.16-.33,2.36,2.36,0,0,1-.15-.89.82.82,0,0,1,.48-.71.81.81,0,0,1,.86.27,2.07,2.07,0,0,1,.39.86c-.22,0-.38-.2-.48-.4S56.2,23.08,56,23s-.53.32-.55.63a.9.9,0,0,0,.28.8c.24.18.67.06.69-.23.15-.1.35.14.27.31A.61.61,0,0,1,56.22,24.83Z" transform="translate(-26.5 -13.5)"/><path d="M33.53,38.46l-1-.83a1.21,1.21,0,0,1-.28-.28,1,1,0,0,1-.13-.52.78.78,0,0,1,.19-.65c.18-.15.54,0,.51.19a.64.64,0,0,0-.1.77,2.42,2.42,0,0,0,.56.63,1.28,1.28,0,0,1,.44.7h-.15m-1.15-2c-.09,0-.15.11-.14.21a.18.18,0,0,0,.22,0l-.06-.22Z" transform="translate(-26.5 -13.5)"/><path d="M47.28,29.81a.6.6,0,0,1,.27-.8,1.29,1.29,0,0,1,.48-.3.44.44,0,0,1,.5.17.19.19,0,0,1,0,.25c-.08,0-.17,0-.25,0a.54.54,0,1,0,.37.45c.05-.1.23-.07.28,0a.41.41,0,0,1,0,.34,1.18,1.18,0,0,1-.49.55.7.7,0,0,1-.71,0A1.14,1.14,0,0,1,47.28,29.81Z" transform="translate(-26.5 -13.5)"/><path d="M39.56,39.17s0,0-.07,0a11.08,11.08,0,0,1-1.9,0,1.1,1.1,0,0,1-.47-.12.4.4,0,0,1-.21-.4,3.47,3.47,0,0,1,1.45.18,1.7,1.7,0,0,0,.71-.05C39.31,38.78,39.62,38.94,39.56,39.17Z" transform="translate(-26.5 -13.5)"/><path d="M42.09,39.14c.11.1.27.06.42,0s.33,0,.35.17a2.29,2.29,0,0,1-1,0,6.56,6.56,0,0,0-1.94.08c-.12-.07-.06-.27.06-.33a.76.76,0,0,1,.41,0,.39.39,0,0,0,.38-.11.64.64,0,0,1,.81-.19.26.26,0,0,0-.14.29A.6.6,0,0,1,42.09,39.14Z" transform="translate(-26.5 -13.5)"/><path d="M33.85,38.61c.06-.28.46-.3.74-.25l1.12.21c.42.08.92.22,1,.63l-1.69-.39a2.51,2.51,0,0,1-.39-.11A1.53,1.53,0,0,0,33.85,38.61Z" transform="translate(-26.5 -13.5)"/><path d="M68.23,35.88a.85.85,0,0,0-.43-.47c-.21-.07-.48.14-.39.33-.11,0-.23-.08-.23-.2a.59.59,0,0,1,.11-.33,3.23,3.23,0,0,0,.47-.28.5.5,0,0,1-.08-.31c0-.11.15-.2.24-.14s0,.32-.08.5a.16.16,0,0,0,.21.07c-.06-.07,0-.18.13-.16a.28.28,0,0,1,.17.19.47.47,0,0,0,.13.23c.24.17.52-.29.81-.23l0,.17a.55.55,0,0,1-.39.12q-.09.22-.17.44a.36.36,0,0,0-.33-.26C68.27,35.57,68.14,35.75,68.23,35.88Z" transform="translate(-26.5 -13.5)"/><path d="M44.38,37.33c0,.08-.05.15-.13.16a.39.39,0,0,1-.22-.08l-.43-.26c-.13-.08-.27-.18-.28-.33a.6.6,0,0,1,.47,0l2.26.83c0,.07-.08.11-.16.11A3,3,0,0,1,44.38,37.33Z" transform="translate(-26.5 -13.5)"/><path d="M33.87,35.84l.18-.17a1,1,0,0,0,.72.09c.25,0,.55,0,.65.24s.36.14.55.07.46-.12.56.06a.16.16,0,0,1-.07.22.44.44,0,0,1-.26,0c-.29,0-.57-.08-.85-.13L34.16,36C34,36,33.87,36,33.87,35.84Z" transform="translate(-26.5 -13.5)"/><path d="M68.48,34.82c-.07-.06,0-.17.09-.19s.19,0,.25-.07a.21.21,0,0,0,0-.29.61.61,0,0,0-.28-.15c.08-.12,0-.27-.08-.38a2.26,2.26,0,0,1-.35-.64.64.64,0,0,1,.17-.67c.14,0,.09.23,0,.37a.91.91,0,0,0,.29.77l.92,1.15A3.67,3.67,0,0,0,68.48,34.82Z" transform="translate(-26.5 -13.5)"/><path d="M67.33,31.58a.32.32,0,0,1,.08-.48A.58.58,0,0,0,67,31c-.11-.1.08-.27.23-.25s.33.09.44,0,.12-.25.23-.23l-.07.37a.46.46,0,0,1,.65.45A.7.7,0,0,0,67.33,31.58Z" transform="translate(-26.5 -13.5)"/><path d="M42.91,36.69a9.39,9.39,0,0,1-1.21-.27c-.18-.05-.4-.21-.31-.37a5.6,5.6,0,0,1,1.81.51C43.2,36.69,43,36.71,42.91,36.69Z" transform="translate(-26.5 -13.5)"/><path d="M57,30.52a2.32,2.32,0,0,0,.62.81.27.27,0,0,0,.41-.12c.16.13,0,.42-.15.47a.61.61,0,0,1-.55-.22,4.19,4.19,0,0,0-.42-.45A.3.3,0,0,1,57,30.52Z" transform="translate(-26.5 -13.5)"/><path d="M60.12,33.48l.25.81c0,.09,0,.2,0,.25a.74.74,0,0,0-.63-.55.39.39,0,1,1,.41-.5m-.15,0a.33.33,0,0,0-.32-.1.31.31,0,0,0,.11.48c.19.05.36-.25.2-.36Z" transform="translate(-26.5 -13.5)"/><path d="M63,37.58a1.64,1.64,0,0,0-.92.18c-.13,0-.2-.17-.13-.27a.51.51,0,0,1,.33-.18,1.1,1.1,0,0,1,.66,0c.21.08.35.36.22.54Z" transform="translate(-26.5 -13.5)"/><path d="M63.85,30c-.17-.17,0-.44.22-.59l.23-.17c0,.18.26.24.43.32s.31.32.16.43A.72.72,0,0,0,63.85,30Z" transform="translate(-26.5 -13.5)"/><path d="M64.6,35.09a.53.53,0,0,1-.13.37.92.92,0,0,0-.61-.54.24.24,0,0,1,.36-.11.19.19,0,0,1,.2-.17.55.55,0,0,1,.27.11l.39.25A.56.56,0,0,1,64.6,35.09Z" transform="translate(-26.5 -13.5)"/><path d="M67.42,32.9l.14-.63a.34.34,0,0,0,.51-.2.49.49,0,0,0-.28-.53.37.37,0,0,1,.47.25,1.07,1.07,0,0,1,0,.6A2.9,2.9,0,0,0,67.42,32.9Z" transform="translate(-26.5 -13.5)"/><path d="M54.3,37.17a.21.21,0,0,1,.07.1,2,2,0,0,1,.22.78.68.68,0,0,1-.4.65,1.55,1.55,0,0,0,0-1.14.52.52,0,0,1-.07-.26C54.12,37.2,54.22,37.12,54.3,37.17Z" transform="translate(-26.5 -13.5)"/><path d="M54,53.6a.27.27,0,0,1,0,.15l0,.44c0,.24-.07.58-.31.56L53.68,54a.54.54,0,0,1,0-.34C53.78,53.54,53.95,53.5,54,53.6Z" transform="translate(-26.5 -13.5)"/><path d="M65.2,35.5c0,.1.08.18.15.25s.07.24,0,.24a.39.39,0,0,1,.15-.76c.33,0,.54.45.87.44a.38.38,0,0,1-.56.11c-.1-.09-.15-.23-.25-.32s-.31-.09-.33,0Z" transform="translate(-26.5 -13.5)"/><path d="M53.39,33l.33-.17a.48.48,0,0,0,.27.26.27.27,0,0,0,.32-.14c0-.12-.08-.28-.2-.24s-.18-.2-.07-.26a.28.28,0,0,1,.34.12.57.57,0,0,1-.26.83A2.31,2.31,0,0,0,53.39,33Z" transform="translate(-26.5 -13.5)"/><path d="M53.36,27.46a1.63,1.63,0,0,0-.76-.29c-.14,0-.34-.11-.27-.23a3.52,3.52,0,0,0,1.12-.19.41.41,0,0,1-.28.39Z" transform="translate(-26.5 -13.5)"/><path d="M57,29.74l-.94-1.44-.2-.31c.6.16.64,1.08,1.2,1.35Z" transform="translate(-26.5 -13.5)"/><path d="M60,28.47a.66.66,0,0,1-.27-.28c0-.12,0-.3.14-.31a2.78,2.78,0,0,0,.78.75.72.72,0,0,1-.64-.16Z" transform="translate(-26.5 -13.5)"/><path d="M54.4,27.64c.2-.22-.3-.49-.25-.78a.18.18,0,0,1,.17-.15,4.46,4.46,0,0,0,.56,1.16A.47.47,0,0,1,54.4,27.64Z" transform="translate(-26.5 -13.5)"/><path d="M59.61,35.75a.48.48,0,0,1-.82,0,.36.36,0,0,1,0-.37A1,1,0,0,0,59.61,35.75Z" transform="translate(-26.5 -13.5)"/><path d="M48.44,40.47a.43.43,0,0,1,0-.16.26.26,0,0,1,0-.1,8.22,8.22,0,0,1,.83,1A1.14,1.14,0,0,1,48.44,40.47Z" transform="translate(-26.5 -13.5)"/><path d="M71.77,35.2a.27.27,0,0,0-.47,0,.51.51,0,0,0,0,.23c-.22-.18,0-.61.28-.6a.53.53,0,0,1,.43.63C71.88,35.53,71.82,35.32,71.77,35.2Z" transform="translate(-26.5 -13.5)"/><path d="M55,29.73a.52.52,0,0,1,.2.59.45.45,0,0,0-.7-.09.43.43,0,0,1,.5-.49Z" transform="translate(-26.5 -13.5)"/><path d="M54.86,36.14a8,8,0,0,1,.1-1l.44.62Z" transform="translate(-26.5 -13.5)"/><path d="M53.62,40.67a.7.7,0,0,1-.81-.21.37.37,0,0,1-.06-.42.82.82,0,0,0,.82.44l0,.19Z" transform="translate(-26.5 -13.5)"/><path d="M46.11,33a.16.16,0,0,1,.11-.07l.6-.2c.12,0,.32,0,.29.11a.17.17,0,0,1-.09.09,2,2,0,0,1-.68.22C46.23,33.12,46.07,33.06,46.11,33Z" transform="translate(-26.5 -13.5)"/><path d="M58.13,36.53a.85.85,0,0,0-.45-.29.46.46,0,0,0-.41.07c-.14-.09-.07-.34.09-.4a.48.48,0,0,1,.46.12A1,1,0,0,1,58.13,36.53Z" transform="translate(-26.5 -13.5)"/><path d="M70.8,37.19a.81.81,0,0,1,.42-.26c.17,0,.36.11.33.28a.56.56,0,0,0-.41-.06c-.13.05-.19.27-.05.33s.26,0,.25.12-.16.11-.24,0-.17-.18-.27-.13A.46.46,0,0,1,70.8,37.19Z" transform="translate(-26.5 -13.5)"/><path d="M49.28,34.76a2.12,2.12,0,0,1,.55.37,1.38,1.38,0,0,1-.5.55.34.34,0,0,1-.12-.19l.37-.28A.42.42,0,0,1,49.28,34.76Z" transform="translate(-26.5 -13.5)"/><path d="M61.29,30.13l-.8-.36A.36.36,0,0,1,61,29.6.65.65,0,0,1,61.29,30.13Z" transform="translate(-26.5 -13.5)"/><path d="M36.34,35.14l-.35.33.16-.55a1,1,0,0,1,.77.09.7.7,0,0,1-.54.15Z" transform="translate(-26.5 -13.5)"/><path d="M61.35,37.84a.68.68,0,0,1,.46.35,1.57,1.57,0,0,1-1-.37.4.4,0,0,1,.54,0Z" transform="translate(-26.5 -13.5)"/><path d="M53.09,33.13v.22a5,5,0,0,1-1.27-.7c.15-.16.39,0,.56.18A1.22,1.22,0,0,0,53.09,33.13Z" transform="translate(-26.5 -13.5)"/><path d="M62,35.06a.61.61,0,0,0-.32,0,.25.25,0,0,1,0-.18l.6-.18a.6.6,0,0,1-.2.66.35.35,0,0,1,0-.27Z" transform="translate(-26.5 -13.5)"/><path d="M57.63,28.33c.18,0,.33-.14.49-.19s.42.06.37.23l-.83.19,0-.22Z" transform="translate(-26.5 -13.5)"/><path d="M58.73,33.68a.26.26,0,0,1,0,.23.43.43,0,1,1-.55-.66.74.74,0,0,0,.15.66A.65.65,0,0,1,58.73,33.68Z" transform="translate(-26.5 -13.5)"/><path d="M53.33,49.45a.36.36,0,0,1,.35.13.75.75,0,0,0-.47.42c-.12,0-.2-.14-.16-.27s.12-.27,0-.37a.14.14,0,0,1,.21.07Z" transform="translate(-26.5 -13.5)"/><path d="M38.51,34.94l-.77.55A.56.56,0,0,1,38.51,34.94Z" transform="translate(-26.5 -13.5)"/><path d="M52.34,27.92c0,.2-.26.3-.44.21s-.3-.27-.48-.36-.23-.15-.15-.22.39.13.53.3S52.26,28.13,52.34,27.92Z" transform="translate(-26.5 -13.5)"/><path d="M42.71,34.05l.23-.53.2.48c-.14,0-.25.13-.36.23s-.33.12-.35,0l.24-.17Z" transform="translate(-26.5 -13.5)"/><path d="M65.72,29.5a1.38,1.38,0,0,1-.36-.13c-.16-.08-.31-.29-.18-.41a.88.88,0,0,0,.74.31c.09,0,.12.14.06.2a.29.29,0,0,1-.25,0Z" transform="translate(-26.5 -13.5)"/><path d="M45.39,28.85l.36.37a2.18,2.18,0,0,0,.51.42.79.79,0,0,1-.87-.79Z" transform="translate(-26.5 -13.5)"/><path d="M51.85,35.13l0-.59c.17-.08.32.18.27.36s-.16.37-.1.55C51.9,35.48,51.84,35.28,51.85,35.13Z" transform="translate(-26.5 -13.5)"/><path d="M60.39,32.3a.66.66,0,0,0,.52-.34c.13.28-.13.59-.36.79Z" transform="translate(-26.5 -13.5)"/><path d="M31.71,34.68l.73.46a.45.45,0,0,1-.73-.46Z" transform="translate(-26.5 -13.5)"/><path d="M55.84,31l-.58-.22a3,3,0,0,1,.92-.06c0,.19-.19.44-.37.36Z" transform="translate(-26.5 -13.5)"/><path d="M69.85,35.48c0-.08-.13-.14-.12-.22a.11.11,0,0,1,.12-.09,1.45,1.45,0,0,1,.17.6.49.49,0,0,1-.32.49C69.53,36,70,35.73,69.85,35.48Z" transform="translate(-26.5 -13.5)"/><path d="M63.78,35.57l.21.14s0,.14-.06.16a.26.26,0,0,1-.2,0,1,1,0,0,1-.46-.43.33.33,0,0,1,.48.16Z" transform="translate(-26.5 -13.5)"/><path d="M50.47,35.73a.15.15,0,0,1,.14-.15.43.43,0,0,1,0,.56c-.16,0-.37,0-.46-.1a.7.7,0,0,0,.33-.3Z" transform="translate(-26.5 -13.5)"/><path d="M65.35,34.78l-.7-.51c-.09-.06-.18-.16-.14-.26C64.88,34.16,65.31,34.38,65.35,34.78Z" transform="translate(-26.5 -13.5)"/><path d="M46.38,30.43a1.73,1.73,0,0,1,.68.41A.45.45,0,0,1,46.38,30.43Z" transform="translate(-26.5 -13.5)"/><path d="M39.35,36.71a.14.14,0,0,1-.06-.22.77.77,0,0,0,.71.07c.07.14-.07.3-.23.32a.72.72,0,0,1-.43-.15Z" transform="translate(-26.5 -13.5)"/><path d="M36.91,30.62a.75.75,0,0,1-.72,0c-.08,0-.16-.12-.13-.2a.33.33,0,0,1,.31.12A.34.34,0,0,1,36.91,30.62Z" transform="translate(-26.5 -13.5)"/><path d="M70.2,34.54l.27-.35.33.44c0,.07-.12.06-.18,0s-.11-.1-.18-.1-.14.09-.21.15-.22,0-.19-.05a.15.15,0,0,1,.15-.11Z" transform="translate(-26.5 -13.5)"/><path d="M43.94,30.13c-.09,0-.23,0-.23-.07q.36-.23.74-.43a.45.45,0,0,1-.5.46Z" transform="translate(-26.5 -13.5)"/><path d="M36.61,29.9c0-.15.24-.18.36-.09a.66.66,0,0,1,.2.39.78.78,0,0,1-.6-.26Z" transform="translate(-26.5 -13.5)"/><path d="M53.05,45.22s-.05.06-.08,0a.13.13,0,0,1,0-.12l.12-.32a.38.38,0,0,1,.14-.21c.08,0,.2,0,.2.08a1.55,1.55,0,0,1-.34.56Z" transform="translate(-26.5 -13.5)"/><path d="M54.63,31.8a.49.49,0,0,1,.48.4,4.61,4.61,0,0,1-1-.47,1.08,1.08,0,0,1,.46.06Z" transform="translate(-26.5 -13.5)"/><path d="M43.07,30.39l-.09-.2a.13.13,0,0,1,.16,0l.51.5a.43.43,0,0,1-.57-.28Z" transform="translate(-26.5 -13.5)"/><path d="M39.69,28.8a1.32,1.32,0,0,1,1-.33c.08,0,.14.15.07.13Z" transform="translate(-26.5 -13.5)"/><path d="M60.5,30.5a.51.51,0,0,1-.22-.29,2,2,0,0,1,.76.26.21.21,0,0,1-.24.16.6.6,0,0,1-.28-.15Z" transform="translate(-26.5 -13.5)"/><path d="M60.41,30.84a.88.88,0,0,1-.61.67l0-.17A2.69,2.69,0,0,1,60.41,30.84Z" transform="translate(-26.5 -13.5)"/><path d="M52.11,54.51l0-.27a.47.47,0,0,1,0,.82l0-.55Z" transform="translate(-26.5 -13.5)"/><path d="M49.61,39.89l.25.39c0,.12-.22,0-.27-.11a1.71,1.71,0,0,1-.12-.8.36.36,0,0,1,.16.48Z" transform="translate(-26.5 -13.5)"/><path d="M49.66,42.44a.22.22,0,0,1-.22.06.73.73,0,0,1,.81-.38.6.6,0,0,1-.57.3Z" transform="translate(-26.5 -13.5)"/><path d="M61.9,29.25l-.33-.44a.8.8,0,0,1,.67.54.32.32,0,0,1-.34-.09Z" transform="translate(-26.5 -13.5)"/><path d="M39.31,31.88l.59.39a.71.71,0,0,1-.77-.28l.15-.09Z" transform="translate(-26.5 -13.5)"/><path d="M53.14,47.56a.47.47,0,0,1-.24-.19l.53-.2a.66.66,0,0,1,0,.41.16.16,0,0,1-.24,0Z" transform="translate(-26.5 -13.5)"/><path d="M53.75,43.76a.26.26,0,1,1-.41-.32.91.91,0,0,1,.42.31Z" transform="translate(-26.5 -13.5)"/><path d="M53.72,41.59a.43.43,0,0,1-.24-.32.64.64,0,0,1,.63.36.35.35,0,0,1-.38,0Z" transform="translate(-26.5 -13.5)"/><path d="M49.83,28.73c.13-.09.33,0,.38.18a.79.79,0,0,1-.06.48,1.91,1.91,0,0,1-.27-.63Z" transform="translate(-26.5 -13.5)"/><path d="M57.15,36.55a.43.43,0,0,1-.65-.14.47.47,0,0,1,.6.11Z" transform="translate(-26.5 -13.5)"/><path d="M53.52,43a1.05,1.05,0,0,1,0-.67.36.36,0,0,1,.06.63Z" transform="translate(-26.5 -13.5)"/><path d="M50.42,29.62l.17-.1a.69.69,0,0,1,.25.31l-.4.27a1,1,0,0,0,0-.47Z" transform="translate(-26.5 -13.5)"/><path d="M31.29,35.73a1.75,1.75,0,0,0,.53.33.35.35,0,0,1-.59-.34Z" transform="translate(-26.5 -13.5)"/><path d="M63.64,28.7a.65.65,0,0,1-.31.17.22.22,0,0,1-.26-.18c.13,0,.24-.1.36-.15s.31.07.24.18Z" transform="translate(-26.5 -13.5)"/><path d="M56.29,27.21a.41.41,0,0,1-.27-.39.68.68,0,0,1,.55.47.26.26,0,0,1-.26-.09Z" transform="translate(-26.5 -13.5)"/><path d="M53.4,48.44a.48.48,0,0,1-.2.25.46.46,0,0,1,.09-.64.37.37,0,0,1,.09.38Z" transform="translate(-26.5 -13.5)"/><path d="M55.19,27.32a.16.16,0,0,1,.08-.21l.63.38a.74.74,0,0,1-.69-.18Z" transform="translate(-26.5 -13.5)"/><path d="M60.08,27.1l.18.19a.49.49,0,0,1-.64-.1.51.51,0,0,1,.46-.08Z" transform="translate(-26.5 -13.5)"/><path d="M64.44,30.4a.35.35,0,0,1-.64,0,1.35,1.35,0,0,1,.62,0Z" transform="translate(-26.5 -13.5)"/><path d="M52.25,38.81a.27.27,0,0,1,0-.34.53.53,0,0,1,.31.56.25.25,0,0,1-.28-.23Z" transform="translate(-26.5 -13.5)"/><path d="M45.46,30.39a.18.18,0,0,1,0,.17l-.45.07a.27.27,0,0,1,.47-.23Z" transform="translate(-26.5 -13.5)"/><path d="M31.23,35.14a.23.23,0,0,1-.07.31.63.63,0,0,1,.21-.79.57.57,0,0,1-.12.46Z" transform="translate(-26.5 -13.5)"/><path d="M39.65,34.54a.22.22,0,0,1-.33-.11,1.45,1.45,0,0,1,.86,0l-.55.15Z" transform="translate(-26.5 -13.5)"/><path d="M63.15,34.86a.38.38,0,0,1-.28.59l.22-.58Z" transform="translate(-26.5 -13.5)"/><path d="M39.43,30.87a.65.65,0,0,1,.37-.07.43.43,0,0,1-.27.31c-.14,0-.31-.08-.28-.22l.17,0Z" transform="translate(-26.5 -13.5)"/><path d="M38.08,34.32l.31-.13a.46.46,0,0,1-.71.22c.08-.12.26-.11.4-.08Z" transform="translate(-26.5 -13.5)"/><path d="M59.74,34.37a.1.1,0,0,1-.09.15.58.58,0,0,1-.28-.19.2.2,0,0,1,.06-.29l.32.32Z" transform="translate(-26.5 -13.5)"/><path d="M48.33,51.37A.53.53,0,0,1,48.6,51c.15-.06.37.08.32.23a.43.43,0,0,0-.54.18Z" transform="translate(-26.5 -13.5)"/><path d="M53.67,51a.37.37,0,0,1-.24.17.25.25,0,0,1-.18-.31.58.58,0,0,1,.31,0l.1.18Z" transform="translate(-26.5 -13.5)"/><path d="M62,28.22a.41.41,0,0,1,.19.16.14.14,0,0,1-.07.2.48.48,0,0,1-.33-.45.15.15,0,0,1,.21.08Z" transform="translate(-26.5 -13.5)"/><path d="M51.59,33a.72.72,0,0,1,.48.36.39.39,0,0,1-.51-.34Z" transform="translate(-26.5 -13.5)"/><path d="M57.32,33.2a.37.37,0,0,1,.39.09.41.41,0,0,1-.34.19c-.13,0-.18-.26-.05-.28Z" transform="translate(-26.5 -13.5)"/><path d="M58.77,27.7l.21.14a.35.35,0,0,1-.38.18.21.21,0,0,1,.17-.34Z" transform="translate(-26.5 -13.5)"/><path d="M60.93,33.05a.44.44,0,0,1,.44-.2.51.51,0,0,1-.63.31.25.25,0,0,1,.18-.11Z" transform="translate(-26.5 -13.5)"/><path d="M49.37,52.53c0-.08,0-.19.1-.18l.39.39a.38.38,0,0,1-.48-.22Z" transform="translate(-26.5 -13.5)"/><path d="M38.74,31.67l-.28-.37a.37.37,0,0,1,.39.08c.09.11,0,.32-.11.33Z" transform="translate(-26.5 -13.5)"/><path d="M62.55,33.41a.28.28,0,0,1,.08.29.93.93,0,0,1-.46-.27.23.23,0,0,1,.36,0Z" transform="translate(-26.5 -13.5)"/><path d="M49.16,40.57a.49.49,0,0,1-.11-.4l.46.63a.24.24,0,0,1-.32-.22Z" transform="translate(-26.5 -13.5)"/><path d="M48.41,52.29a.16.16,0,0,1,.24,0,.32.32,0,0,1-.51.22l.25-.2Z" transform="translate(-26.5 -13.5)"/><path d="M56.79,30a.16.16,0,0,1,.15.13.45.45,0,0,1-.58-.36l.42.23Z" transform="translate(-26.5 -13.5)"/><path d="M67.15,30.15a.71.71,0,0,1,.39.25.52.52,0,0,1-.58-.2.14.14,0,0,1,.19-.06Z" transform="translate(-26.5 -13.5)"/><path d="M64.42,28.7a.84.84,0,0,1,.29.37.44.44,0,0,1-.38-.12c-.09-.11,0-.31.11-.31Z" transform="translate(-26.5 -13.5)"/><path d="M65.85,33.85l-.08-.13.39-.25a.36.36,0,0,1,0,.25.48.48,0,0,1-.32.11Z" transform="translate(-26.5 -13.5)"/><path d="M70.9,34.18a.49.49,0,0,1-.45-.34.51.51,0,0,1,.54.33Z" transform="translate(-26.5 -13.5)"/><path d="M51,30.4a.16.16,0,0,1,.15.13.46.46,0,0,1-.5-.08.19.19,0,0,1,0-.18.69.69,0,0,1,.32.12Z" transform="translate(-26.5 -13.5)"/><path d="M59.3,32.2a.8.8,0,0,1,.47.34.39.39,0,0,1-.5-.34Z" transform="translate(-26.5 -13.5)"/><path d="M60.67,31.6l.09.23a.4.4,0,0,1-.36-.46.22.22,0,0,1,.24.22Z" transform="translate(-26.5 -13.5)"/><path d="M48,39.12l.25.11a.39.39,0,0,1-.39.1.45.45,0,0,1-.11-.31.37.37,0,0,1,.25.11Z" transform="translate(-26.5 -13.5)"/><path d="M54.35,30.78l.39.26c0,.13-.19.18-.29.1a.51.51,0,0,1-.14-.35Z" transform="translate(-26.5 -13.5)"/><path d="M57.42,32.79c-.05.09-.22,0-.2-.1a.19.19,0,0,1,.26-.1.53.53,0,0,1,.22.22.44.44,0,0,1-.24,0Z" transform="translate(-26.5 -13.5)"/><path d="M38.52,30.64c0-.11.2-.15.21,0a.67.67,0,0,1-.39.39.39.39,0,0,1,.16-.35Z" transform="translate(-26.5 -13.5)"/><path d="M40.78,33.72c0-.09.13-.13.21-.09a.41.41,0,0,1,.15.23.25.25,0,0,1-.25.11l-.11-.25Z" transform="translate(-26.5 -13.5)"/><path d="M57.13,31.54l.08.12a.57.57,0,0,1-.73,0,.78.78,0,0,0,.6-.11Z" transform="translate(-26.5 -13.5)"/><path d="M53.25,46.17a.19.19,0,0,1-.29.14.49.49,0,0,1,.32-.38.16.16,0,0,1,0,.24Z" transform="translate(-26.5 -13.5)"/><path d="M43.16,27.26a.31.31,0,0,1,.08.37.75.75,0,0,1-.31-.42.17.17,0,0,1,.24,0Z" transform="translate(-26.5 -13.5)"/><path d="M45.47,31.53a.1.1,0,0,1,0,.17,2.28,2.28,0,0,0-.53-.24.34.34,0,0,1,.49.07Z" transform="translate(-26.5 -13.5)"/><path d="M63.61,29.16a.26.26,0,0,1-.46.17,1.14,1.14,0,0,1,.46-.18Z" transform="translate(-26.5 -13.5)"/><path d="M65.66,37.64c-.08,0-.19,0-.18-.1l.25-.25a.31.31,0,0,1,.1.33l-.17,0Z" transform="translate(-26.5 -13.5)"/><path d="M48,28.09l-.18-.41a.39.39,0,0,1,.34.38l-.16,0Z" transform="translate(-26.5 -13.5)"/><path d="M31.75,33.79a.29.29,0,0,1,.21-.15l-.09.43a.15.15,0,0,1-.21,0l.08-.28Z" transform="translate(-26.5 -13.5)"/><path d="M53.5,52.15c.07,0,.12.08.1.16a.28.28,0,0,1-.43-.14l.33,0Z" transform="translate(-26.5 -13.5)"/><path d="M41.29,28.62l.21.22a1.2,1.2,0,0,1-.56-.14.39.39,0,0,1,.36-.1Z" transform="translate(-26.5 -13.5)"/><path d="M40.26,29a.34.34,0,0,1,0,.43.51.51,0,0,1-.12-.4.23.23,0,0,1,.18,0Z" transform="translate(-26.5 -13.5)"/><path d="M52,39.45a.09.09,0,0,1,0-.16.39.39,0,0,1,.23.48.76.76,0,0,1-.27-.32Z" transform="translate(-26.5 -13.5)"/><path d="M58,27.63a.42.42,0,0,1,.37-.28.29.29,0,0,1-.36.3Z" transform="translate(-26.5 -13.5)"/><path d="M52.4,35.7a1,1,0,0,0,.2.38.53.53,0,0,1-.4-.26c-.05-.09.1-.17.19-.13Z" transform="translate(-26.5 -13.5)"/><path d="M40.17,33.93l-.09-.22a.32.32,0,0,1,.29.08V34a.13.13,0,0,1-.21-.07Z" transform="translate(-26.5 -13.5)"/><path d="M36.55,34.08c0,.06-.09.12-.11.05l-.17-.35a.32.32,0,0,1,.28.08v.21Z" transform="translate(-26.5 -13.5)"/><path d="M67.84,33.21a.12.12,0,0,1-.12.19.62.62,0,0,1-.17-.32.23.23,0,0,1,.29.14Z" transform="translate(-26.5 -13.5)"/><path d="M48.79,28.13c0,.07-.09.13-.13.07s0-.31.1-.38a.2.2,0,0,1,0,.32Z" transform="translate(-26.5 -13.5)"/><path d="M71.29,35.38a.38.38,0,0,1,.36.25.43.43,0,0,1-.26,0l-.11-.28Z" transform="translate(-26.5 -13.5)"/><path d="M67.17,33.82l-.41-.24a.26.26,0,0,1,.18-.11.79.79,0,0,1,.26.31Z" transform="translate(-26.5 -13.5)"/><path d="M57.39,28.74c-.1,0-.21-.13-.15-.21a.8.8,0,0,1,.4.38.17.17,0,0,1-.23-.17Z" transform="translate(-26.5 -13.5)"/><path d="M38.15,28.44c.11,0,.21.14.14.22a.31.31,0,0,1-.32-.25.12.12,0,0,1,.18,0Z" transform="translate(-26.5 -13.5)"/><path d="M49.15,28.63c.11,0,0,.24-.1.17a.41.41,0,0,1-.12-.31c.08-.07.21,0,.22.14Z" transform="translate(-26.5 -13.5)"/><path d="M57.07,28.5a.25.25,0,0,1-.25-.35.38.38,0,0,1,.24.34Z" transform="translate(-26.5 -13.5)"/><path d="M64.47,32.34a.46.46,0,0,1-.15.51,1,1,0,0,1,.1-.53Z" transform="translate(-26.5 -13.5)"/><path d="M35.5,35.84a.2.2,0,0,1,0-.18c.12,0,.27,0,.32.11a.27.27,0,0,1-.35.07Z" transform="translate(-26.5 -13.5)"/><path d="M37.9,36.69a.27.27,0,0,1,.42,0,.27.27,0,0,1-.42,0Z" transform="translate(-26.5 -13.5)"/><path d="M50.73,40.33a.17.17,0,0,1-.22.14.23.23,0,0,1,.07-.28c.09-.05.23.07.16.15Z" transform="translate(-26.5 -13.5)"/><path d="M61.17,28.55a.42.42,0,0,1-.13-.3.35.35,0,0,1,.26.14c0,.09-.06.23-.14.17Z" transform="translate(-26.5 -13.5)"/><path d="M61.91,30.56a.27.27,0,0,1-.29-.35,1,1,0,0,1,.3.35Z" transform="translate(-26.5 -13.5)"/><path d="M32.35,34.52a.2.2,0,0,1-.08-.28.32.32,0,0,1,.25.26.24.24,0,0,1-.18,0Z" transform="translate(-26.5 -13.5)"/><path d="M54.2,35.44a.19.19,0,0,1-.22-.07.13.13,0,0,1,.08-.19l.18.09,0,.18Z" transform="translate(-26.5 -13.5)"/><path d="M44,33.84a.22.22,0,0,1,0-.3.47.47,0,0,1,.18.25.16.16,0,0,1-.21.08Z" transform="translate(-26.5 -13.5)"/><path d="M37.21,29.13a.2.2,0,0,1,.33-.14.18.18,0,0,1-.28.14Z" transform="translate(-26.5 -13.5)"/><path d="M56.39,31.14a.2.2,0,0,1,0,.34.2.2,0,0,1,0-.34Z" transform="translate(-26.5 -13.5)"/><path d="M55.73,32.16a.23.23,0,0,1-.12.17.6.6,0,0,1,0-.43c.1,0,.12.14.09.25Z" transform="translate(-26.5 -13.5)"/><path d="M64.67,35.73a.21.21,0,0,1-.18,0,.25.25,0,0,1,0-.19l.25,0a.2.2,0,0,1-.11.19Z" transform="translate(-26.5 -13.5)"/><path d="M39.35,32.48a.26.26,0,0,1-.07.35.24.24,0,0,1-.11-.24l.18-.1Z" transform="translate(-26.5 -13.5)"/><path d="M50.65,29.11,50.48,29a.23.23,0,0,1,.37.14.11.11,0,0,1-.17,0Z" transform="translate(-26.5 -13.5)"/><path d="M40.67,36.79a.46.46,0,0,0-.07-.32.2.2,0,0,1,.27.08l-.16.25Z" transform="translate(-26.5 -13.5)"/><path d="M52.47,51.26c0-.14.25-.22.26-.08a.29.29,0,0,1-.13.16c-.06,0-.16,0-.14-.09Z" transform="translate(-26.5 -13.5)"/><path d="M59,32.86a.1.1,0,0,1,0-.17c.1,0,.24,0,.25.14s-.2.14-.19,0Z" transform="translate(-26.5 -13.5)"/><path d="M68,36.05a.18.18,0,0,1-.28-.14.21.21,0,0,1,.31.14Z" transform="translate(-26.5 -13.5)"/><path d="M37.69,29.89l-.07-.12a.16.16,0,1,1,.09.08Z" transform="translate(-26.5 -13.5)"/><path d="M60.08,32.2a.19.19,0,0,1,.07-.28.23.23,0,0,1,.1.24.23.23,0,0,1-.18,0Z" transform="translate(-26.5 -13.5)"/><path d="M56.75,33.25a.21.21,0,0,1-.17,0,.72.72,0,0,1,.32-.26.37.37,0,0,1-.14.29Z" transform="translate(-26.5 -13.5)"/><path d="M52.65,35.3a.19.19,0,0,1-.08-.27c.15,0,.23.24.08.3Z" transform="translate(-26.5 -13.5)"/><path d="M46.8,29.84l-.22-.16c.1,0,.23-.08.31,0s0,.25-.11.17Z" transform="translate(-26.5 -13.5)"/><path d="M45.35,33.23a.33.33,0,0,1,.27-.17.38.38,0,0,1-.13.24c-.08.05-.21,0-.2-.09Z" transform="translate(-26.5 -13.5)"/><path d="M60.61,28c-.14.05-.28-.17-.17-.27a.3.3,0,0,1,.16.26Z" transform="translate(-26.5 -13.5)"/><path d="M62.55,29.09c-.08,0-.13-.09-.11-.16a.22.22,0,0,1,.18-.13.19.19,0,0,1-.07.27Z" transform="translate(-26.5 -13.5)"/><path d="M51.62,26.71a.28.28,0,0,1-.29-.22.25.25,0,0,1,.3.22Z" transform="translate(-26.5 -13.5)"/><path d="M49.67,27.25a.2.2,0,0,1,.08.28c-.14,0-.22-.25-.07-.27Z" transform="translate(-26.5 -13.5)"/><path d="M54.36,28.78l.15.12a.13.13,0,1,1-.18-.12Z" transform="translate(-26.5 -13.5)"/><path d="M32.45,35.17a.65.65,0,0,0,.42-.15.24.24,0,0,1-.42.14Z" transform="translate(-26.5 -13.5)"/><path d="M53.18,41.64a.14.14,0,0,1,0,.24A.24.24,0,0,1,53,41.7c0-.07.12-.12.15-.05Z" transform="translate(-26.5 -13.5)"/><path d="M42.93,27.81a.14.14,0,1,1-.28,0,.22.22,0,0,1,.23,0Z" transform="translate(-26.5 -13.5)"/><path d="M58.6,35.92l.16.12-.1.2c-.12,0-.12-.18-.08-.29Z" transform="translate(-26.5 -13.5)"/><path d="M35.6,35.1l-.23.14c0-.1,0-.21.1-.26s.21.09.13.14Z" transform="translate(-26.5 -13.5)"/><path d="M59.24,26.59a.25.25,0,0,1-.09.36.26.26,0,0,1,.07-.34Z" transform="translate(-26.5 -13.5)"/><path d="M51.87,42.46c-.11,0-.22-.14-.14-.21s.23.13.14.2Z" transform="translate(-26.5 -13.5)"/><path d="M53.93,40.32a.13.13,0,1,1,.23,0,.15.15,0,0,1-.21,0Z" transform="translate(-26.5 -13.5)"/><path d="M45.74,35.34c0-.05.14,0,.16.06a.29.29,0,0,1,0,.2c-.1,0-.12-.14-.1-.25Z" transform="translate(-26.5 -13.5)"/><path d="M42.73,38.28l0-.18a.15.15,0,0,1,.21.15l-.17,0Z" transform="translate(-26.5 -13.5)"/><path d="M64.87,37.41a.22.22,0,0,1,.25.06.25.25,0,0,1-.18.11c-.07,0-.12-.11-.06-.15Z" transform="translate(-26.5 -13.5)"/><path d="M50.87,39.63a.19.19,0,0,1,.09.26.3.3,0,0,1-.16-.13c0-.06,0-.16.08-.15Z" transform="translate(-26.5 -13.5)"/><path d="M63.56,33.59l.16.12a.22.22,0,0,1-.18.12.19.19,0,0,1,0-.22Z" transform="translate(-26.5 -13.5)"/><path d="M41.75,27.74c.09,0,.12.13.08.22a.23.23,0,0,1-.17-.09c0-.06,0-.15.09-.11Z" transform="translate(-26.5 -13.5)"/><path d="M70.48,36.94s.1,0,.1.07a.17.17,0,0,1-.1.12c-.1,0-.11-.2,0-.21Z" transform="translate(-26.5 -13.5)"/><path d="M42,26.18a.11.11,0,0,1-.17,0c0-.07,0-.15.12-.17s.13.11.06.12Z" transform="translate(-26.5 -13.5)"/><path d="M42.36,37.18c0-.06.08-.12.13-.07a.42.42,0,0,1,0,.25.26.26,0,0,1-.11-.18Z" transform="translate(-26.5 -13.5)"/><path d="M51.2,42a.16.16,0,0,1-.22-.15.15.15,0,0,1,.21.15Z" transform="translate(-26.5 -13.5)"/><path d="M68.25,35.87l.28.18a.18.18,0,0,1-.28-.17Z" transform="translate(-26.5 -13.5)"/><path d="M51.13,30a.11.11,0,0,1,0-.17c.07,0,.15,0,.17.12s-.11.13-.12.06Z" transform="translate(-26.5 -13.5)"/><path d="M52.32,41.64c0,.11-.24,0-.19-.06a.11.11,0,0,1,.19.06Z" transform="translate(-26.5 -13.5)"/><path d="M50,31.55c-.1,0-.26,0-.24-.09a.15.15,0,0,1,.25.1Z" transform="translate(-26.5 -13.5)"/><path d="M61.44,34.36c0-.12.18-.13.29-.08a.21.21,0,0,1-.29.09Z" transform="translate(-26.5 -13.5)"/><path d="M48.32,34.75l0-.18a.15.15,0,0,1,.21.07.24.24,0,0,1-.17.1Z" transform="translate(-26.5 -13.5)"/><path d="M63,33.62a.2.2,0,0,1,.08.28c-.12,0-.13-.18-.08-.29Z" transform="translate(-26.5 -13.5)"/><path d="M66.31,35.1c0,.13-.23.16-.24,0a.15.15,0,0,1,.23,0Z" transform="translate(-26.5 -13.5)"/><path d="M35.22,34.38c.1.07,0,.22-.13.28a.19.19,0,0,1,.12-.22Z" transform="translate(-26.5 -13.5)"/><path d="M49.51,52c0-.07.14,0,.12.07s-.1.1-.18.11l0-.18Z" transform="translate(-26.5 -13.5)"/><path d="M64.85,31.88a.21.21,0,0,1,0,.17c-.06,0-.13-.1-.12-.17s.15-.07.13,0Z" transform="translate(-26.5 -13.5)"/><path d="M50.6,39.26c-.07,0-.08-.11,0-.14a.21.21,0,0,1,.19,0,.26.26,0,0,1-.17.1Z" transform="translate(-26.5 -13.5)"/><path d="M58.7,31.82c-.09.06-.21-.12-.11-.18s.11.09.1.17Z" transform="translate(-26.5 -13.5)"/><path d="M59.07,27.14c0-.07.12-.07.13,0s-.06.13-.12.17a.23.23,0,0,1,0-.17Z" transform="translate(-26.5 -13.5)"/><path d="M49.15,39a.16.16,0,0,1-.22-.17.15.15,0,0,1,.19.15Z" transform="translate(-26.5 -13.5)"/><path d="M46.64,28.52c.06,0,.12.08.07.13a.2.2,0,0,1-.19,0l.11-.11Z" transform="translate(-26.5 -13.5)"/><path d="M66.75,35.55c.09-.06.21.12.11.18s-.12-.09-.1-.17Z" transform="translate(-26.5 -13.5)"/><path d="M68.52,34.11c0,.13-.25.15-.27,0l.28,0Z" transform="translate(-26.5 -13.5)"/><path d="M41,37.12c0,.1-.2.1-.21,0a.1.1,0,0,1,.19,0Z" transform="translate(-26.5 -13.5)"/><path d="M49.08,27.56c0-.11.24,0,.2.07a.12.12,0,0,1-.19-.08Z" transform="translate(-26.5 -13.5)"/><path d="M62.2,34.17a.15.15,0,0,1-.08-.2.14.14,0,0,1,.15.07.09.09,0,0,1-.08.13Z" transform="translate(-26.5 -13.5)"/><path d="M52.5,43.23a.11.11,0,0,1-.17,0,.15.15,0,0,1,.08-.15c.06,0,.13.07.08.11Z" transform="translate(-26.5 -13.5)"/><path d="M62.18,29.9A.13.13,0,0,1,62,30c0-.09.13-.12.22-.08Z" transform="translate(-26.5 -13.5)"/><path d="M55.13,33c.06.09-.12.21-.18.11s.09-.12.17-.1Z" transform="translate(-26.5 -13.5)"/><path d="M54.2,35.88c.09,0,.13.13.08.21s-.13-.13-.08-.22Z" transform="translate(-26.5 -13.5)"/><path d="M57.22,27.35a.18.18,0,0,1-.11.16c-.1-.05,0-.23.11-.17Z" transform="translate(-26.5 -13.5)"/><path d="M48.51,27.29a.11.11,0,0,1,0,.17.15.15,0,0,1-.15-.08c0-.06.07-.13.11-.08Z" transform="translate(-26.5 -13.5)"/><path d="M49.79,41.36c0-.06.09-.13.12-.06s-.13.16-.15.06Z" transform="translate(-26.5 -13.5)"/><path d="M57.43,29.75s0-.1.07-.07.05.09.05.14-.15,0-.12-.06Z" transform="translate(-26.5 -13.5)"/><path d="M51.7,40.08s0-.11.08-.1a.21.21,0,0,1,.12.1.18.18,0,0,1-.21,0Z" transform="translate(-26.5 -13.5)"/><path d="M41.65,26.64c0,.07-.1.13-.14.07s0-.11.05-.14.12,0,.07.07Z" transform="translate(-26.5 -13.5)"/><path d="M40.25,40a.09.09,0,1,1-.15-.07.08.08,0,0,1,.11.07Z" transform="translate(-26.5 -13.5)"/><path d="M49.76,28a.08.08,0,1,1-.11.08l.09-.09Z" transform="translate(-26.5 -13.5)"/><path d="M50.54,33.38l.06-.23.06.22Z" transform="translate(-26.5 -13.5)"/><path d="M46,30.42a.09.09,0,0,1-.14,0c0-.06,0-.14.11-.15s.11.1,0,.11Z" transform="translate(-26.5 -13.5)"/><path d="M48.69,53.14c-.09,0-.13-.12-.08-.21a.16.16,0,0,1,.08.21Z" transform="translate(-26.5 -13.5)"/><path d="M49.9,53.7c0,.1-.21.06-.19,0a.12.12,0,0,1,.17,0Z" transform="translate(-26.5 -13.5)"/><path d="M55.2,28.87a.09.09,0,0,1-.16,0c0-.1.2-.05.15,0Z" transform="translate(-26.5 -13.5)"/><path d="M39.31,33.22c.09,0,.19.13.11.18s-.12-.09-.1-.18Z" transform="translate(-26.5 -13.5)"/><path d="M51.48,28.91a.09.09,0,0,1,0,.16c-.1,0-.05-.2,0-.15Z" transform="translate(-26.5 -13.5)"/></g><path d="M49.61,49.45a9.74,9.74,0,0,1-1.53.23,4.6,4.6,0,0,0-1.61,2.14c-.35,1.26,1.3,1.33,1.3,1.33.66,1.38-2.79,1.11-3.39,0-.73-1.42,1-2.6,2.48-3.51a20.17,20.17,0,0,1-2.6-.61c-.34.25-.68.52-1,.82a7.07,7.07,0,0,1-5,1.83c.41-1-.65-2.65-.65-2.65,1.46.8,3,.58,4.8-.06l.73-.26a5.78,5.78,0,0,0-2.63-.13s-.89-.56-.23-.93,1.63.09,3.59.76c1.19-.48,2.27-1,3.16-1.25l-.1,0c-1.76-.67-2.75-1-2.88-.5,0,0-.89-.38-.51-.86s1.48-.06,2.52.53a8.15,8.15,0,0,0,1.46.73,1.48,1.48,0,0,1,1.11,0c.06,0,.05,0,.05,0h0c0,.1-.15.45-1.2.18a11.92,11.92,0,0,0-2.69,1.42l.77.25a4.88,4.88,0,0,0,1.89.36,3.29,3.29,0,0,0,.66-.41,9.77,9.77,0,0,1,2.59-1.12,1.09,1.09,0,0,1,.64-.06C52.2,47.88,51.06,49.13,49.61,49.45Zm.66-1.14-.24.11a9.7,9.7,0,0,0-1.41.84c1.24-.15,1.94-.61,2-.85S50.49,48.24,50.27,48.31Z" transform="translate(-26.5 -13.5)"/><path d="M54.16,51.32a2.35,2.35,0,0,1-1.24.39,1.89,1.89,0,0,1-.33,0,2.68,2.68,0,0,1-2.7,1c-2.7-.56,0-3.14,1.92-2.94,1.27.13,1.15.65.87.63s-.06-.37-.55-.42a2.56,2.56,0,0,0-1.94,1.12c-.46.65.32,1.46,1.36.81a1.51,1.51,0,0,0,.47-.47c-.48-.36-.44-.89.46-1a.53.53,0,0,1,.45.14c.11.09.07.37-.11.71.21.15.65.18,1.38-.23C54.21,51.07,54.37,51.18,54.16,51.32Z" transform="translate(-26.5 -13.5)"/><path d="M61.67,51.58a2.37,2.37,0,0,1-1.85,1.25c-2.1.28-1.38-1.16-.74-2,.44-.61.47-.89.13-.87-.66,0-1.64,1.1-2.19,2.47a1.13,1.13,0,0,0-.09.71c-1.79,0-.92-1.41-.32-2.09s.64-.8.31-.86c-.58-.11-1.67,1-2.35,2.37a1.67,1.67,0,0,0-.22.61c-.55,0-1.18-.25-1.08-.58A12.17,12.17,0,0,1,54.81,50a1.39,1.39,0,0,1,.48,0L56,50a9.93,9.93,0,0,0-.63.86l.61-.47c.69-.52,2.08-.59,2,0a3.26,3.26,0,0,1,1.44-.66c1.62-.22.21,1.58.28,2.08.1.71,1.56,0,1.87-.41C61.55,51.37,61.79,51.37,61.67,51.58Z" transform="translate(-26.5 -13.5)"/><path d="M71.85,47.82c-1.3-.57-4.49,3.37-6.24,2.85a3.39,3.39,0,0,1-2.53,1.52c-3.64.42-1.51-2.86.76-3.4l.08,0h0a.94.94,0,0,1,.43,0c1,.23-.56,2.68-1.89,2.18l-.1-.06c0,.54.75,1.11,2.51.09a2.63,2.63,0,0,0,.47-.36h0s-.21-.15-.1-.31c.49-.32.47,0,.43.21A2.73,2.73,0,0,0,68,49.58c1.37-1.21,2.7-2.41,3.5-2.57C72,46.89,72.31,47.19,71.85,47.82Zm-9.46,2.79a1.59,1.59,0,0,1,.34-.28c1.11.33,2.1-1.41,1.29-1.41h0A2.41,2.41,0,0,0,62.39,50.61Z" transform="translate(-26.5 -13.5)"/></svg>