<?xml version="1.0" encoding="utf-8"?>
<!-- Generator: Adobe Illustrator 16.0.0, SVG Export Plug-In . SVG Version: 6.00 Build 0)  -->
<!DOCTYPE svg PUBLIC "-//W3C//DTD SVG 1.1//EN" "http://www.w3.org/Graphics/SVG/1.1/DTD/svg11.dtd">
<svg version="1.1" id="Layer_1" xmlns="http://www.w3.org/2000/svg" xmlns:xlink="http://www.w3.org/1999/xlink" x="0px" y="0px"
	 width="130px" height="130px" viewBox="0 0 130 130" enable-background="new 0 0 130 130" xml:space="preserve">
  <metadata>
    <?xpacket begin="﻿" id="W5M0MpCehiHzreSzNTczkc9d"?>
    <x:xmpmeta xmlns:x="adobe:ns:meta/" x:xmptk="Adobe XMP Core 5.6-c011 79.156380, 2014/06/19-23:40:37        ">
     <rdf:RDF xmlns:rdf="http://www.w3.org/1999/02/22-rdf-syntax-ns#">
      <rdf:Description rdf:about=""
        xmlns:xmpMM="http://ns.adobe.com/xap/1.0/mm/"
        xmlns:stEvt="http://ns.adobe.com/xap/1.0/sType/ResourceEvent#"
        xmlns:xmp="http://ns.adobe.com/xap/1.0/"
        xmlns:xmpRights="http://ns.adobe.com/xap/1.0/rights/"
        xmlns:dc="http://purl.org/dc/elements/1.1/"
       xmpMM:DocumentID="xmp.did:20b15e38c0cff17c52b8d39ffb95a9b3"
       xmpMM:OriginalDocumentID="xmp.did:20b15e38c0cff17c52b8d39ffb95a9b3"
       xmpMM:InstanceID="xmp.iid:20b15e38c0cff17c52b8d39ffb95a9b3"
       xmp:ModifyDate="2015-04-09T15:53:56+02:00"
       xmp:MetadataDate="2015-04-09T15:53:56+02:00"
       xmpRights:Marked="True"
       xmpRights:WebStatement="http://www.adobe.com/legal/general-terms.html">
       <xmpMM:History>
        <rdf:Seq>
         <rdf:li
          stEvt:action="saved"
          stEvt:instanceID="xmp.iid:20b15e38c0cff17c52b8d39ffb95a9b3"
          stEvt:when="2015-04-09T15:53:56+02:00"/>
        </rdf:Seq>
       </xmpMM:History>
       <xmpRights:UsageTerms>
        <rdf:Alt>
         <rdf:li xml:lang="x-default">This work is licensed under the Adobe General Terms of Use http://www.adobe.com/legal/general-terms.html.</rdf:li>
        </rdf:Alt>
       </xmpRights:UsageTerms>
       <dc:publisher>
        <rdf:Bag>
         <rdf:li>Adobe Systems Incorporated</rdf:li>
        </rdf:Bag>
       </dc:publisher>
      </rdf:Description>
     </rdf:RDF>
    </x:xmpmeta>
    <?xpacket end="r"?>
  </metadata>
<g>
	<g id="Rounded_Rectangle_5_copy_44_4_">
		<path fill="#DD574B" d="M117.094,0.999H12.906C6.33,0.999,0.999,6.33,0.999,12.906v104.188c0,6.576,5.331,11.907,11.907,11.907
			h104.188c6.576,0,11.907-5.331,11.907-11.907V12.906C129.001,6.33,123.67,0.999,117.094,0.999z"/>
	</g>
	<g id="Shape_364_4_">
		<path fill="#B94136" d="M129.001,117.094V98.9L92.271,62.152l-29.437,1.209l-18.98-0.729L36.355,66.6l62.888,62.401h17.851
			C123.67,129.001,129.001,123.67,129.001,117.094z"/>
	</g>
	<g id="Shape_389_1_">
		<path fill="#FFF6E4" d="M91.575,61.325l-52.817-0.154c-1.865,0-3.382,1.613-3.382,3.407s1.524,3.903,3.398,3.903l53.068-0.21
			c1.859,0,3.371-1.463,3.371-3.261C95.214,63.212,93.435,61.325,91.575,61.325z"/>
	</g>
</g>
</svg>
