<?xml version="1.0" encoding="utf-8"?>
<!-- Generator: Adobe Illustrator 16.0.0, SVG Export Plug-In . SVG Version: 6.00 Build 0)  -->
<!DOCTYPE svg PUBLIC "-//W3C//DTD SVG 1.1//EN" "http://www.w3.org/Graphics/SVG/1.1/DTD/svg11.dtd">
<svg version="1.1" id="Layer_1" xmlns="http://www.w3.org/2000/svg" xmlns:xlink="http://www.w3.org/1999/xlink" x="0px" y="0px"
	 width="130px" height="130px" viewBox="0 0 130 130" enable-background="new 0 0 130 130" xml:space="preserve">
  <metadata>
    <?xpacket begin="﻿" id="W5M0MpCehiHzreSzNTczkc9d"?>
    <x:xmpmeta xmlns:x="adobe:ns:meta/" x:xmptk="Adobe XMP Core 5.6-c011 79.156380, 2014/06/19-23:40:37        ">
     <rdf:RDF xmlns:rdf="http://www.w3.org/1999/02/22-rdf-syntax-ns#">
      <rdf:Description rdf:about=""
        xmlns:xmpMM="http://ns.adobe.com/xap/1.0/mm/"
        xmlns:stEvt="http://ns.adobe.com/xap/1.0/sType/ResourceEvent#"
        xmlns:xmp="http://ns.adobe.com/xap/1.0/"
        xmlns:xmpRights="http://ns.adobe.com/xap/1.0/rights/"
        xmlns:dc="http://purl.org/dc/elements/1.1/"
       xmpMM:DocumentID="xmp.did:510022d6828ec085f64fef75cbd4233f"
       xmpMM:OriginalDocumentID="xmp.did:510022d6828ec085f64fef75cbd4233f"
       xmpMM:InstanceID="xmp.iid:510022d6828ec085f64fef75cbd4233f"
       xmp:ModifyDate="2015-04-15T15:09:04+02:00"
       xmp:MetadataDate="2015-04-15T15:09:04+02:00"
       xmpRights:Marked="True"
       xmpRights:WebStatement="http://www.adobe.com/legal/general-terms.html">
       <xmpMM:History>
        <rdf:Seq>
         <rdf:li
          stEvt:action="saved"
          stEvt:instanceID="xmp.iid:510022d6828ec085f64fef75cbd4233f"
          stEvt:when="2015-04-15T15:09:04+02:00"/>
        </rdf:Seq>
       </xmpMM:History>
       <xmpRights:UsageTerms>
        <rdf:Alt>
         <rdf:li xml:lang="x-default">This work is licensed under the Adobe General Terms of Use http://www.adobe.com/legal/general-terms.html.</rdf:li>
        </rdf:Alt>
       </xmpRights:UsageTerms>
       <dc:publisher>
        <rdf:Bag>
         <rdf:li>Adobe Systems Incorporated</rdf:li>
        </rdf:Bag>
       </dc:publisher>
      </rdf:Description>
     </rdf:RDF>
    </x:xmpmeta>
    <?xpacket end="r"?>
  </metadata>
<g>
	<g id="Rounded_Rectangle_5_copy_46_4_">
		<path fill="#4A8CAE" d="M117.094,0.999H12.906C6.33,0.999,0.999,6.33,0.999,12.906v104.188c0,6.576,5.331,11.907,11.907,11.907
			h104.188c6.576,0,11.907-5.331,11.907-11.907V12.906C129.001,6.33,123.67,0.999,117.094,0.999z"/>
	</g>
	<g id="Shape_364_6_">
		<path fill="#38718F" d="M129.001,117.094v-16.245L67.455,39.271l-2.92,11.681v17.52l-18.98-0.729l-8.198,3.967l57.731,57.292
			h22.006C123.67,129.001,129.001,123.67,129.001,117.094z"/>
	</g>
	<g id="Shape_389_3_">
		<path fill="#FFF6E4" d="M91.545,64.822l-22.668,0.005V41.889c0-1.84-1.194-3.337-3.057-3.337s-3.558,1.481-3.558,3.303
			l0.092,22.991l-23.627-0.184c-1.865,0-3.382,1.683-3.382,3.556c0,1.872,1.524,4.073,3.398,4.073l23.644,0.046v22.717
			c0,1.84,1.487,3.338,3.363,3.338c1.877,0,3.126-1.511,3.126-3.365V72.118l22.937-0.046c1.858,0,3.371-1.526,3.371-3.403
			S93.404,64.822,91.545,64.822z"/>
	</g>
</g>
</svg>
